<?xml version="1.0" encoding="UTF-8"?> <svg xmlns="http://www.w3.org/2000/svg" width="286" height="382"><defs><clipPath id="sitocGSTuCPC"><path id="svg_1" d="m0,0l1300,0l0,826l-1300,0l0,-826z" fill="none"></path></clipPath></defs><g><title>background</title><rect fill="none" id="canvas_background" height="384" width="288" y="-1" x="-1"></rect></g><g><title>Layer 1</title><g id="svg_2" clip-path="url(#sitocGSTuCPC)" transform="translate(-246,-102) scale(1) "><g id="svg_3"><rect id="svg_4" height="826" width="1300" y="-48" x="-46" fill="rgb(255,255,255)" fill-opacity="0"></rect><path id="svg_5" stroke-width="2.5" stroke-miterlimit="10" stroke-linejoin="round" stroke-linecap="round" stroke-opacity="0.698039" d="m256.19236,210.99007l232.75465,0" stroke="rgb(255,255,255)" fill="none"></path><path id="svg_6" fill-opacity="0.698039" d="m505.94701,210.99007l-17,4.25l0,-8.5l17,4.25z" fill-rule="evenodd" fill="rgb(255,255,255)"></path><path id="svg_7" stroke-width="2.5" stroke-miterlimit="10" stroke-linejoin="round" stroke-linecap="round" stroke-opacity="0.698039" d="m256.19236,377.49317l233.62704,-77.87568" stroke="rgb(255,255,255)" fill="none"></path><path id="svg_8" fill-opacity="0.698039" d="m505.94701,294.24162l-14.78364,9.40777l-2.68794,-8.06381l17.47158,-1.34396z" fill-rule="evenodd" fill="rgb(255,255,255)"></path><path id="svg_9" stroke-width="2.5" stroke-miterlimit="10" stroke-linejoin="round" stroke-linecap="round" stroke-opacity="0.698039" d="m256.19236,294.24162l235.6098,157.07319" stroke="rgb(255,255,255)" fill="none"></path><path id="svg_10" fill-opacity="0.698039" d="m505.94701,460.74472l-16.50233,-5.89369l4.71496,-7.07243l11.78737,12.96612z" fill-rule="evenodd" fill="rgb(255,255,255)"></path><path id="svg_11" d="m261.19236,377.49317c0,2.76142 -2.23857,5 -5,5c-2.76142,0 -5,-2.23858 -5,-5c0,-2.76143 2.23858,-5 5,-5c2.76143,0 5,2.23857 5,5z" fill="rgb(21,101,192)"></path><path id="svg_12" stroke-miterlimit="10" stroke-linejoin="round" stroke-linecap="round" d="m261.19236,377.49317c0,2.76142 -2.23857,5 -5,5c-2.76142,0 -5,-2.23858 -5,-5c0,-2.76143 2.23858,-5 5,-5c2.76143,0 5,2.23857 5,5z" stroke="rgb(255,255,255)" fill="none"></path><text id="svg_13" text-anchor="start" y="367" x="260" font-weight="normal" font-style="normal" font-size="16px" font-family="geogebra-sans-serif, sans-serif" fill="rgb(21,101,192)">3</text><text id="svg_14" stroke-width="3" stroke-miterlimit="10" stroke-linejoin="bevel" stroke-linecap="round" text-anchor="start" y="367" x="260" font-weight="normal" font-style="normal" font-size="16px" font-family="geogebra-sans-serif, sans-serif" stroke="rgb(255,255,255)" fill="none">3</text><text id="svg_15" text-anchor="start" y="367" x="260" font-weight="normal" font-style="normal" font-size="16px" font-family="geogebra-sans-serif, sans-serif" fill="rgb(21,101,192)">3</text><path id="svg_16" d="m261.19236,294.24162c0,2.76142 -2.23857,5 -5,5c-2.76142,0 -5,-2.23858 -5,-5c0,-2.76143 2.23858,-5 5,-5c2.76143,0 5,2.23857 5,5z" fill="rgb(21,101,192)"></path><path id="svg_17" stroke-miterlimit="10" stroke-linejoin="round" stroke-linecap="round" d="m261.19236,294.24162c0,2.76142 -2.23857,5 -5,5c-2.76142,0 -5,-2.23858 -5,-5c0,-2.76143 2.23858,-5 5,-5c2.76143,0 5,2.23857 5,5z" stroke="rgb(255,255,255)" fill="none"></path><text id="svg_18" text-anchor="start" y="284" x="260" font-weight="normal" font-style="normal" font-size="16px" font-family="geogebra-sans-serif, sans-serif" fill="rgb(21,101,192)">2</text><text id="svg_19" stroke-width="3" stroke-miterlimit="10" stroke-linejoin="bevel" stroke-linecap="round" text-anchor="start" y="284" x="260" font-weight="normal" font-style="normal" font-size="16px" font-family="geogebra-sans-serif, sans-serif" stroke="rgb(255,255,255)" fill="none">2</text><text id="svg_20" text-anchor="start" y="284" x="260" font-weight="normal" font-style="normal" font-size="16px" font-family="geogebra-sans-serif, sans-serif" fill="rgb(21,101,192)">2</text><path id="svg_21" d="m261.19236,210.99007c0,2.76142 -2.23857,5 -5,5c-2.76142,0 -5,-2.23858 -5,-5c0,-2.76143 2.23858,-5 5,-5c2.76143,0 5,2.23857 5,5z" fill="rgb(21,101,192)"></path><path id="svg_22" stroke-miterlimit="10" stroke-linejoin="round" stroke-linecap="round" d="m261.19236,210.99007c0,2.76142 -2.23857,5 -5,5c-2.76142,0 -5,-2.23858 -5,-5c0,-2.76143 2.23858,-5 5,-5c2.76143,0 5,2.23857 5,5z" stroke="rgb(255,255,255)" fill="none"></path><text id="svg_23" text-anchor="start" y="201" x="260" font-weight="normal" font-style="normal" font-size="16px" font-family="geogebra-sans-serif, sans-serif" fill="rgb(21,101,192)">1</text><text id="svg_24" stroke-width="3" stroke-miterlimit="10" stroke-linejoin="bevel" stroke-linecap="round" text-anchor="start" y="201" x="260" font-weight="normal" font-style="normal" font-size="16px" font-family="geogebra-sans-serif, sans-serif" stroke="rgb(255,255,255)" fill="none">1</text><text id="svg_25" text-anchor="start" y="201" x="260" font-weight="normal" font-style="normal" font-size="16px" font-family="geogebra-sans-serif, sans-serif" fill="rgb(21,101,192)">1</text><path id="svg_26" d="m510.94701,294.24162c0,2.76142 -2.23857,5 -5,5c-2.76142,0 -5,-2.23858 -5,-5c0,-2.76143 2.23858,-5 5,-5c2.76143,0 5,2.23857 5,5z" fill="rgb(255,0,0)"></path><path id="svg_27" stroke-miterlimit="10" stroke-linejoin="round" stroke-linecap="round" d="m510.94701,294.24162c0,2.76142 -2.23857,5 -5,5c-2.76142,0 -5,-2.23858 -5,-5c0,-2.76143 2.23858,-5 5,-5c2.76143,0 5,2.23857 5,5z" stroke="rgb(255,255,255)" fill="none"></path><text id="svg_28" text-anchor="start" y="284" x="510" font-weight="normal" font-style="normal" font-size="16px" font-family="geogebra-sans-serif, sans-serif" fill="rgb(255,0,0)">6</text><text id="svg_29" stroke-width="3" stroke-miterlimit="10" stroke-linejoin="bevel" stroke-linecap="round" text-anchor="start" y="284" x="510" font-weight="normal" font-style="normal" font-size="16px" font-family="geogebra-sans-serif, sans-serif" stroke="rgb(255,255,255)" fill="none">6</text><text id="svg_30" text-anchor="start" y="284" x="510" font-weight="normal" font-style="normal" font-size="16px" font-family="geogebra-sans-serif, sans-serif" fill="rgb(255,0,0)">6</text><path id="svg_31" d="m510.94701,210.99007c0,2.76142 -2.23857,5 -5,5c-2.76142,0 -5,-2.23858 -5,-5c0,-2.76143 2.23858,-5 5,-5c2.76143,0 5,2.23857 5,5z" fill="rgb(255,0,0)"></path><path id="svg_32" stroke-miterlimit="10" stroke-linejoin="round" stroke-linecap="round" d="m510.94701,210.99007c0,2.76142 -2.23857,5 -5,5c-2.76142,0 -5,-2.23858 -5,-5c0,-2.76143 2.23858,-5 5,-5c2.76143,0 5,2.23857 5,5z" stroke="rgb(255,255,255)" fill="none"></path><text id="svg_33" text-anchor="start" y="201" x="510" font-weight="normal" font-style="normal" font-size="16px" font-family="geogebra-sans-serif, sans-serif" fill="rgb(255,0,0)">5</text><text id="svg_34" stroke-width="3" stroke-miterlimit="10" stroke-linejoin="bevel" stroke-linecap="round" text-anchor="start" y="201" x="510" font-weight="normal" font-style="normal" font-size="16px" font-family="geogebra-sans-serif, sans-serif" stroke="rgb(255,255,255)" fill="none">5</text><text id="svg_35" text-anchor="start" y="201" x="510" font-weight="normal" font-style="normal" font-size="16px" font-family="geogebra-sans-serif, sans-serif" fill="rgb(255,0,0)">5</text><path id="svg_36" d="m510.94701,127.73852c0,2.76142 -2.23857,5 -5,5c-2.76142,0 -5,-2.23858 -5,-5c0,-2.76143 2.23858,-5 5,-5c2.76143,0 5,2.23857 5,5z" fill="rgb(255,0,0)"></path><path id="svg_37" stroke-miterlimit="10" stroke-linejoin="round" stroke-linecap="round" d="m510.94701,127.73852c0,2.76142 -2.23857,5 -5,5c-2.76142,0 -5,-2.23858 -5,-5c0,-2.76143 2.23858,-5 5,-5c2.76143,0 5,2.23857 5,5z" stroke="rgb(255,255,255)" fill="none"></path><text id="svg_38" text-anchor="start" y="118" x="510" font-weight="normal" font-style="normal" font-size="16px" font-family="geogebra-sans-serif, sans-serif" fill="rgb(255,0,0)">4</text><text id="svg_39" stroke-width="3" stroke-miterlimit="10" stroke-linejoin="bevel" stroke-linecap="round" text-anchor="start" y="118" x="510" font-weight="normal" font-style="normal" font-size="16px" font-family="geogebra-sans-serif, sans-serif" stroke="rgb(255,255,255)" fill="none">4</text><text id="svg_40" text-anchor="start" y="118" x="510" font-weight="normal" font-style="normal" font-size="16px" font-family="geogebra-sans-serif, sans-serif" fill="rgb(255,0,0)">4</text><path id="svg_41" d="m510.94701,377.49317c0,2.76142 -2.23857,5 -5,5c-2.76142,0 -5,-2.23858 -5,-5c0,-2.76143 2.23858,-5 5,-5c2.76143,0 5,2.23857 5,5z" fill="rgb(255,0,0)"></path><path id="svg_42" stroke-miterlimit="10" stroke-linejoin="round" stroke-linecap="round" d="m510.94701,377.49317c0,2.76142 -2.23857,5 -5,5c-2.76142,0 -5,-2.23858 -5,-5c0,-2.76143 2.23858,-5 5,-5c2.76143,0 5,2.23857 5,5z" stroke="rgb(255,255,255)" fill="none"></path><text id="svg_43" text-anchor="start" y="367" x="510" font-weight="normal" font-style="normal" font-size="16px" font-family="geogebra-sans-serif, sans-serif" fill="rgb(255,0,0)">7</text><text id="svg_44" stroke-width="3" stroke-miterlimit="10" stroke-linejoin="bevel" stroke-linecap="round" text-anchor="start" y="367" x="510" font-weight="normal" font-style="normal" font-size="16px" font-family="geogebra-sans-serif, sans-serif" stroke="rgb(255,255,255)" fill="none">7</text><text id="svg_45" text-anchor="start" y="367" x="510" font-weight="normal" font-style="normal" font-size="16px" font-family="geogebra-sans-serif, sans-serif" fill="rgb(255,0,0)">7</text><path id="svg_46" d="m510.94701,460.74472c0,2.76142 -2.23857,5 -5,5c-2.76142,0 -5,-2.23858 -5,-5c0,-2.76143 2.23858,-5 5,-5c2.76143,0 5,2.23857 5,5z" fill="rgb(255,0,0)"></path><path id="svg_47" stroke-miterlimit="10" stroke-linejoin="round" stroke-linecap="round" d="m510.94701,460.74472c0,2.76142 -2.23857,5 -5,5c-2.76142,0 -5,-2.23858 -5,-5c0,-2.76143 2.23858,-5 5,-5c2.76143,0 5,2.23857 5,5z" stroke="rgb(255,255,255)" fill="none"></path><text id="svg_48" text-anchor="start" y="451" x="510" font-weight="normal" font-style="normal" font-size="16px" font-family="geogebra-sans-serif, sans-serif" fill="rgb(255,0,0)">8</text><text id="svg_49" stroke-width="3" stroke-miterlimit="10" stroke-linejoin="bevel" stroke-linecap="round" text-anchor="start" y="451" x="510" font-weight="normal" font-style="normal" font-size="16px" font-family="geogebra-sans-serif, sans-serif" stroke="rgb(255,255,255)" fill="none">8</text><text id="svg_50" text-anchor="start" y="451" x="510" font-weight="normal" font-style="normal" font-size="16px" font-family="geogebra-sans-serif, sans-serif" fill="rgb(255,0,0)">8</text></g></g></g></svg> 