<?xml version="1.0" encoding="UTF-8"?> <svg xmlns="http://www.w3.org/2000/svg" width="286" height="382"><defs><clipPath id="RyJBMUbNslow"><path id="svg_1" d="m0,0l1300,0l0,826l-1300,0l0,-826z" fill="none"></path></clipPath></defs><g><title>background</title><rect fill="none" id="canvas_background" height="384" width="288" y="-1" x="-1"></rect></g><g><title>Layer 1</title><g id="svg_2" clip-path="url(#RyJBMUbNslow)" transform="translate(-288,-125) scale(1) "><g id="svg_3"><rect id="svg_4" height="826" width="1300" y="-25" x="-4" fill="rgb(255,255,255)" fill-opacity="0"></rect><path id="svg_5" stroke-width="2.5" stroke-miterlimit="10" stroke-linejoin="round" stroke-linecap="round" stroke-opacity="0.698039" d="m298.192365,233.990066l232.754649,0" stroke="rgb(255,255,255)" fill="none"></path><path id="svg_6" fill-opacity="0.698039" d="m547.947014,233.990066l-17,4.25l0,-8.5l17,4.25z" fill-rule="evenodd" fill="rgb(255,255,255)"></path><path id="svg_7" stroke-width="2.5" stroke-miterlimit="10" stroke-linejoin="round" stroke-linecap="round" stroke-opacity="0.698039" d="m298.192365,317.241616l235.609794,157.073196" stroke="rgb(255,255,255)" fill="none"></path><path id="svg_8" fill-opacity="0.698039" d="m547.947014,483.744715l-16.502331,-5.893689l4.714952,-7.072428l11.787379,12.966117z" fill-rule="evenodd" fill="rgb(255,255,255)"></path><path id="svg_9" stroke-width="2.5" stroke-miterlimit="10" stroke-linejoin="round" stroke-linecap="round" stroke-opacity="0.698039" d="m298.192365,400.493166l235.609794,-157.073197" stroke="rgb(255,255,255)" fill="none"></path><path id="svg_10" fill-opacity="0.698039" d="m547.947014,233.990066l-11.787379,12.966117l-4.714952,-7.072427l16.502331,-5.89369z" fill-rule="evenodd" fill="rgb(255,255,255)"></path><path id="svg_11" d="m303.192365,400.493166c0,2.761423 -2.238576,5 -5,5c-2.761424,0 -5,-2.238577 -5,-5c0,-2.761424 2.238576,-5 5,-5c2.761424,0 5,2.238576 5,5z" fill="rgb(21,101,192)"></path><path id="svg_12" stroke-miterlimit="10" stroke-linejoin="round" stroke-linecap="round" d="m303.192365,400.493166c0,2.761423 -2.238576,5 -5,5c-2.761424,0 -5,-2.238577 -5,-5c0,-2.761424 2.238576,-5 5,-5c2.761424,0 5,2.238576 5,5z" stroke="rgb(255,255,255)" fill="none"></path><text id="svg_13" text-anchor="start" y="390" x="302" font-weight="normal" font-style="normal" font-size="16px" font-family="geogebra-sans-serif, sans-serif" fill="rgb(21,101,192)">3</text><text id="svg_14" stroke-width="3" stroke-miterlimit="10" stroke-linejoin="bevel" stroke-linecap="round" text-anchor="start" y="390" x="302" font-weight="normal" font-style="normal" font-size="16px" font-family="geogebra-sans-serif, sans-serif" stroke="rgb(255,255,255)" fill="none">3</text><text id="svg_15" text-anchor="start" y="390" x="302" font-weight="normal" font-style="normal" font-size="16px" font-family="geogebra-sans-serif, sans-serif" fill="rgb(21,101,192)">3</text><path id="svg_16" d="m303.192365,317.241616c0,2.761424 -2.238576,5 -5,5c-2.761424,0 -5,-2.238576 -5,-5c0,-2.761424 2.238576,-5 5,-5c2.761424,0 5,2.238576 5,5z" fill="rgb(21,101,192)"></path><path id="svg_17" stroke-miterlimit="10" stroke-linejoin="round" stroke-linecap="round" d="m303.192365,317.241616c0,2.761424 -2.238576,5 -5,5c-2.761424,0 -5,-2.238576 -5,-5c0,-2.761424 2.238576,-5 5,-5c2.761424,0 5,2.238576 5,5z" stroke="rgb(255,255,255)" fill="none"></path><text id="svg_18" text-anchor="start" y="307" x="302" font-weight="normal" font-style="normal" font-size="16px" font-family="geogebra-sans-serif, sans-serif" fill="rgb(21,101,192)">2</text><text id="svg_19" stroke-width="3" stroke-miterlimit="10" stroke-linejoin="bevel" stroke-linecap="round" text-anchor="start" y="307" x="302" font-weight="normal" font-style="normal" font-size="16px" font-family="geogebra-sans-serif, sans-serif" stroke="rgb(255,255,255)" fill="none">2</text><text id="svg_20" text-anchor="start" y="307" x="302" font-weight="normal" font-style="normal" font-size="16px" font-family="geogebra-sans-serif, sans-serif" fill="rgb(21,101,192)">2</text><path id="svg_21" d="m303.192365,233.990066c0,2.761424 -2.238576,5 -5,5c-2.761424,0 -5,-2.238576 -5,-5c0,-2.761424 2.238576,-5 5,-5c2.761424,0 5,2.238576 5,5z" fill="rgb(21,101,192)"></path><path id="svg_22" stroke-miterlimit="10" stroke-linejoin="round" stroke-linecap="round" d="m303.192365,233.990066c0,2.761424 -2.238576,5 -5,5c-2.761424,0 -5,-2.238576 -5,-5c0,-2.761424 2.238576,-5 5,-5c2.761424,0 5,2.238576 5,5z" stroke="rgb(255,255,255)" fill="none"></path><text id="svg_23" text-anchor="start" y="224" x="302" font-weight="normal" font-style="normal" font-size="16px" font-family="geogebra-sans-serif, sans-serif" fill="rgb(21,101,192)">1</text><text id="svg_24" stroke-width="3" stroke-miterlimit="10" stroke-linejoin="bevel" stroke-linecap="round" text-anchor="start" y="224" x="302" font-weight="normal" font-style="normal" font-size="16px" font-family="geogebra-sans-serif, sans-serif" stroke="rgb(255,255,255)" fill="none">1</text><text id="svg_25" text-anchor="start" y="224" x="302" font-weight="normal" font-style="normal" font-size="16px" font-family="geogebra-sans-serif, sans-serif" fill="rgb(21,101,192)">1</text><path id="svg_26" d="m552.947014,317.241616c0,2.761424 -2.238576,5 -5,5c-2.761424,0 -5,-2.238576 -5,-5c0,-2.761424 2.238576,-5 5,-5c2.761424,0 5,2.238576 5,5z" fill="rgb(255,0,0)"></path><path id="svg_27" stroke-miterlimit="10" stroke-linejoin="round" stroke-linecap="round" d="m552.947014,317.241616c0,2.761424 -2.238576,5 -5,5c-2.761424,0 -5,-2.238576 -5,-5c0,-2.761424 2.238576,-5 5,-5c2.761424,0 5,2.238576 5,5z" stroke="rgb(255,255,255)" fill="none"></path><text id="svg_28" text-anchor="start" y="307" x="552" font-weight="normal" font-style="normal" font-size="16px" font-family="geogebra-sans-serif, sans-serif" fill="rgb(255,0,0)">6</text><text id="svg_29" stroke-width="3" stroke-miterlimit="10" stroke-linejoin="bevel" stroke-linecap="round" text-anchor="start" y="307" x="552" font-weight="normal" font-style="normal" font-size="16px" font-family="geogebra-sans-serif, sans-serif" stroke="rgb(255,255,255)" fill="none">6</text><text id="svg_30" text-anchor="start" y="307" x="552" font-weight="normal" font-style="normal" font-size="16px" font-family="geogebra-sans-serif, sans-serif" fill="rgb(255,0,0)">6</text><path id="svg_31" d="m552.947014,233.990066c0,2.761424 -2.238576,5 -5,5c-2.761424,0 -5,-2.238576 -5,-5c0,-2.761424 2.238576,-5 5,-5c2.761424,0 5,2.238576 5,5z" fill="rgb(255,0,0)"></path><path id="svg_32" stroke-miterlimit="10" stroke-linejoin="round" stroke-linecap="round" d="m552.947014,233.990066c0,2.761424 -2.238576,5 -5,5c-2.761424,0 -5,-2.238576 -5,-5c0,-2.761424 2.238576,-5 5,-5c2.761424,0 5,2.238576 5,5z" stroke="rgb(255,255,255)" fill="none"></path><text id="svg_33" text-anchor="start" y="224" x="552" font-weight="normal" font-style="normal" font-size="16px" font-family="geogebra-sans-serif, sans-serif" fill="rgb(255,0,0)">5</text><text id="svg_34" stroke-width="3" stroke-miterlimit="10" stroke-linejoin="bevel" stroke-linecap="round" text-anchor="start" y="224" x="552" font-weight="normal" font-style="normal" font-size="16px" font-family="geogebra-sans-serif, sans-serif" stroke="rgb(255,255,255)" fill="none">5</text><text id="svg_35" text-anchor="start" y="224" x="552" font-weight="normal" font-style="normal" font-size="16px" font-family="geogebra-sans-serif, sans-serif" fill="rgb(255,0,0)">5</text><path id="svg_36" d="m552.947014,150.738516c0,2.761424 -2.238576,5 -5,5c-2.761424,0 -5,-2.238576 -5,-5c0,-2.761424 2.238576,-5 5,-5c2.761424,0 5,2.238576 5,5z" fill="rgb(255,0,0)"></path><path id="svg_37" stroke-miterlimit="10" stroke-linejoin="round" stroke-linecap="round" d="m552.947014,150.738516c0,2.761424 -2.238576,5 -5,5c-2.761424,0 -5,-2.238576 -5,-5c0,-2.761424 2.238576,-5 5,-5c2.761424,0 5,2.238576 5,5z" stroke="rgb(255,255,255)" fill="none"></path><text id="svg_38" text-anchor="start" y="141" x="552" font-weight="normal" font-style="normal" font-size="16px" font-family="geogebra-sans-serif, sans-serif" fill="rgb(255,0,0)">4</text><text id="svg_39" stroke-width="3" stroke-miterlimit="10" stroke-linejoin="bevel" stroke-linecap="round" text-anchor="start" y="141" x="552" font-weight="normal" font-style="normal" font-size="16px" font-family="geogebra-sans-serif, sans-serif" stroke="rgb(255,255,255)" fill="none">4</text><text id="svg_40" text-anchor="start" y="141" x="552" font-weight="normal" font-style="normal" font-size="16px" font-family="geogebra-sans-serif, sans-serif" fill="rgb(255,0,0)">4</text><path id="svg_41" d="m552.947014,400.493166c0,2.761423 -2.238576,5 -5,5c-2.761424,0 -5,-2.238577 -5,-5c0,-2.761424 2.238576,-5 5,-5c2.761424,0 5,2.238576 5,5z" fill="rgb(255,0,0)"></path><path id="svg_42" stroke-miterlimit="10" stroke-linejoin="round" stroke-linecap="round" d="m552.947014,400.493166c0,2.761423 -2.238576,5 -5,5c-2.761424,0 -5,-2.238577 -5,-5c0,-2.761424 2.238576,-5 5,-5c2.761424,0 5,2.238576 5,5z" stroke="rgb(255,255,255)" fill="none"></path><text id="svg_43" text-anchor="start" y="390" x="552" font-weight="normal" font-style="normal" font-size="16px" font-family="geogebra-sans-serif, sans-serif" fill="rgb(255,0,0)">7</text><text id="svg_44" stroke-width="3" stroke-miterlimit="10" stroke-linejoin="bevel" stroke-linecap="round" text-anchor="start" y="390" x="552" font-weight="normal" font-style="normal" font-size="16px" font-family="geogebra-sans-serif, sans-serif" stroke="rgb(255,255,255)" fill="none">7</text><text id="svg_45" text-anchor="start" y="390" x="552" font-weight="normal" font-style="normal" font-size="16px" font-family="geogebra-sans-serif, sans-serif" fill="rgb(255,0,0)">7</text><path id="svg_46" d="m552.947014,483.744715c0,2.761424 -2.238576,5 -5,5c-2.761424,0 -5,-2.238576 -5,-5c0,-2.761423 2.238576,-5 5,-5c2.761424,0 5,2.238577 5,5z" fill="rgb(255,0,0)"></path><path id="svg_47" stroke-miterlimit="10" stroke-linejoin="round" stroke-linecap="round" d="m552.947014,483.744715c0,2.761424 -2.238576,5 -5,5c-2.761424,0 -5,-2.238576 -5,-5c0,-2.761423 2.238576,-5 5,-5c2.761424,0 5,2.238577 5,5z" stroke="rgb(255,255,255)" fill="none"></path><text id="svg_48" text-anchor="start" y="474" x="552" font-weight="normal" font-style="normal" font-size="16px" font-family="geogebra-sans-serif, sans-serif" fill="rgb(255,0,0)">8</text><text id="svg_49" stroke-width="3" stroke-miterlimit="10" stroke-linejoin="bevel" stroke-linecap="round" text-anchor="start" y="474" x="552" font-weight="normal" font-style="normal" font-size="16px" font-family="geogebra-sans-serif, sans-serif" stroke="rgb(255,255,255)" fill="none">8</text><text id="svg_50" text-anchor="start" y="474" x="552" font-weight="normal" font-style="normal" font-size="16px" font-family="geogebra-sans-serif, sans-serif" fill="rgb(255,0,0)">8</text></g></g></g></svg> 