<svg version="1.1" xmlns="http://www.w3.org/2000/svg" xmlns:xlink="http://www.w3.org/1999/xlink" width="800" height="800"><defs/><g transform="scale(2,2)"><g id="background-13f40521"><rect fill="white" stroke="none" x="0" y="0" width="400" height="400" class="dcg-svg-background"/></g><g id="background-images-13f40521"/><g id="graphpaper-13f40521"><g id="grid-13f40521"><g><path fill="none" stroke="rgb(0,0,0)" class="dcg-svg-minor-gridline" paint-order="fill stroke markers" d=" M -0.5 0 L -0.5 400" stroke-opacity="0.2" stroke-miterlimit="10" stroke-dasharray=""/><path fill="none" stroke="rgb(0,0,0)" class="dcg-svg-minor-gridline" paint-order="fill stroke markers" d=" M 124.5 0 L 124.5 400" stroke-opacity="0.2" stroke-miterlimit="10" stroke-dasharray=""/><path fill="none" stroke="rgb(0,0,0)" class="dcg-svg-minor-gridline" paint-order="fill stroke markers" d=" M 249.5 0 L 249.5 400" stroke-opacity="0.2" stroke-miterlimit="10" stroke-dasharray=""/><path fill="none" stroke="rgb(0,0,0)" class="dcg-svg-minor-gridline" paint-order="fill stroke markers" d=" M 374.5 0 L 374.5 400" stroke-opacity="0.2" stroke-miterlimit="10" stroke-dasharray=""/><path fill="none" stroke="rgb(0,0,0)" class="dcg-svg-minor-gridline" paint-order="fill stroke markers" d=" M 0 199.5 L 400 199.5" stroke-opacity="0.2" stroke-miterlimit="10" stroke-dasharray=""/><path fill="none" stroke="rgb(0,0,0)" class="dcg-svg-minor-gridline" paint-order="fill stroke markers" d=" M 0 99.5 L 400 99.5" stroke-opacity="0.2" stroke-miterlimit="10" stroke-dasharray=""/><path fill="none" stroke="rgb(0,0,0)" class="dcg-svg-minor-gridline" paint-order="fill stroke markers" d=" M 0 -0.5 L 400 -0.5" stroke-opacity="0.2" stroke-miterlimit="10" stroke-dasharray=""/><path fill="none" stroke="rgb(0,0,0)" class="dcg-svg-major-gridline" paint-order="fill stroke markers" d=" M -0.5 0 L -0.5 400" stroke-opacity="0.2500000000000001" stroke-miterlimit="10" stroke-dasharray=""/><path fill="none" stroke="rgb(0,0,0)" class="dcg-svg-major-gridline" paint-order="fill stroke markers" d=" M 124.5 0 L 124.5 400" stroke-opacity="0.2500000000000001" stroke-miterlimit="10" stroke-dasharray=""/><path fill="none" stroke="rgb(0,0,0)" class="dcg-svg-major-gridline" paint-order="fill stroke markers" d=" M 249.5 0 L 249.5 400" stroke-opacity="0.2500000000000001" stroke-miterlimit="10" stroke-dasharray=""/><path fill="none" stroke="rgb(0,0,0)" class="dcg-svg-major-gridline" paint-order="fill stroke markers" d=" M 374.5 0 L 374.5 400" stroke-opacity="0.2500000000000001" stroke-miterlimit="10" stroke-dasharray=""/><path fill="none" stroke="rgb(0,0,0)" class="dcg-svg-major-gridline" paint-order="fill stroke markers" d=" M 0 199.5 L 400 199.5" stroke-opacity="0.2500000000000001" stroke-miterlimit="10" stroke-dasharray=""/><path fill="none" stroke="rgb(0,0,0)" class="dcg-svg-major-gridline" paint-order="fill stroke markers" d=" M 0 99.5 L 400 99.5" stroke-opacity="0.2500000000000001" stroke-miterlimit="10" stroke-dasharray=""/><path fill="none" stroke="rgb(0,0,0)" class="dcg-svg-major-gridline" paint-order="fill stroke markers" d=" M 0 -0.5 L 400 -0.5" stroke-opacity="0.2500000000000001" stroke-miterlimit="10" stroke-dasharray=""/></g></g><g id="axis-13f40521"><g id="yaxis-13f40521"><title>Y axis</title><path fill="none" stroke="rgb(0,0,0)" class="dcg-svg-axis-line" paint-order="fill stroke markers" d=" M -1500 0 L -1500 400" stroke-opacity="0.9" stroke-miterlimit="10" stroke-width="1.5" stroke-dasharray=""/></g><g id="xaxis-13f40521"><title>X axis</title><path fill="none" stroke="rgb(0,0,0)" class="dcg-svg-axis-line" paint-order="fill stroke markers" d=" M 0 300 L 400 300" stroke-opacity="0.9" stroke-miterlimit="10" stroke-width="1.5" stroke-dasharray=""/></g><g><g class="dcg-svg-axis-value"><text fill="none" stroke="#ffffff" font-family="Arial" font-size="14px" font-style="normal" font-weight="normal" text-decoration="normal" x="-1508.89306640625" y="315.808" text-anchor="middle" stroke-miterlimit="2" stroke-width="3" stroke-dasharray="">0</text><text fill="#000000" stroke="none" font-family="Arial" font-size="14px" font-style="normal" font-weight="normal" text-decoration="normal" x="-1508.89306640625" y="315.808" text-anchor="middle">0</text></g><g class="dcg-svg-axis-value dcg-svg-offcenter-axis-value"><text fill="none" stroke="#ffffff" font-family="Arial" font-size="14px" font-style="normal" font-weight="normal" text-decoration="normal" x="10.7861328125" y="315.808" text-anchor="middle" stroke-miterlimit="2" stroke-width="3" stroke-dasharray="">60</text><text fill="#000000" stroke="none" font-family="Arial" font-size="14px" font-style="normal" font-weight="normal" text-decoration="normal" x="10.7861328125" y="315.808" text-anchor="middle">60</text></g><g class="dcg-svg-axis-value"><text fill="none" stroke="#ffffff" font-family="Arial" font-size="14px" font-style="normal" font-weight="normal" text-decoration="normal" x="125" y="315.808" text-anchor="middle" stroke-miterlimit="2" stroke-width="3" stroke-dasharray="">65</text><text fill="#000000" stroke="none" font-family="Arial" font-size="14px" font-style="normal" font-weight="normal" text-decoration="normal" x="125" y="315.808" text-anchor="middle">65</text></g><g class="dcg-svg-axis-value"><text fill="none" stroke="#ffffff" font-family="Arial" font-size="14px" font-style="normal" font-weight="normal" text-decoration="normal" x="250" y="315.808" text-anchor="middle" stroke-miterlimit="2" stroke-width="3" stroke-dasharray="">70</text><text fill="#000000" stroke="none" font-family="Arial" font-size="14px" font-style="normal" font-weight="normal" text-decoration="normal" x="250" y="315.808" text-anchor="middle">70</text></g><g class="dcg-svg-axis-value"><text fill="none" stroke="#ffffff" font-family="Arial" font-size="14px" font-style="normal" font-weight="normal" text-decoration="normal" x="375" y="315.808" text-anchor="middle" stroke-miterlimit="2" stroke-width="3" stroke-dasharray="">75</text><text fill="#000000" stroke="none" font-family="Arial" font-size="14px" font-style="normal" font-weight="normal" text-decoration="normal" x="375" y="315.808" text-anchor="middle">75</text></g><g class="dcg-svg-axis-value dcg-svg-offcenter-axis-value"><text fill="none" stroke="#ffffff" font-family="Arial" font-size="14px" font-style="normal" font-weight="normal" text-decoration="normal" x="15.06201171875" y="393.808" text-anchor="middle" stroke-miterlimit="2" stroke-width="3" stroke-dasharray="">-0.1</text><text fill="rgb(150,150,150)" stroke="none" font-family="Arial" font-size="14px" font-style="normal" font-weight="normal" text-decoration="normal" x="15.06201171875" y="393.808" text-anchor="middle" fill-opacity="1">-0.1</text></g><g class="dcg-svg-axis-value"><text fill="none" stroke="#ffffff" font-family="Arial" font-size="14px" font-style="normal" font-weight="normal" text-decoration="normal" x="12.73095703125" y="203.808" text-anchor="middle" stroke-miterlimit="2" stroke-width="3" stroke-dasharray="">0.1</text><text fill="rgb(150,150,150)" stroke="none" font-family="Arial" font-size="14px" font-style="normal" font-weight="normal" text-decoration="normal" x="12.73095703125" y="203.808" text-anchor="middle" fill-opacity="1">0.1</text></g><g class="dcg-svg-axis-value"><text fill="none" stroke="#ffffff" font-family="Arial" font-size="14px" font-style="normal" font-weight="normal" text-decoration="normal" x="12.73095703125" y="103.808" text-anchor="middle" stroke-miterlimit="2" stroke-width="3" stroke-dasharray="">0.2</text><text fill="rgb(150,150,150)" stroke="none" font-family="Arial" font-size="14px" font-style="normal" font-weight="normal" text-decoration="normal" x="12.73095703125" y="103.808" text-anchor="middle" fill-opacity="1">0.2</text></g><g class="dcg-svg-axis-value dcg-svg-offcenter-axis-value"><text fill="none" stroke="#ffffff" font-family="Arial" font-size="14px" font-style="normal" font-weight="normal" text-decoration="normal" x="12.73095703125" y="13.808" text-anchor="middle" stroke-miterlimit="2" stroke-width="3" stroke-dasharray="">0.3</text><text fill="rgb(150,150,150)" stroke="none" font-family="Arial" font-size="14px" font-style="normal" font-weight="normal" text-decoration="normal" x="12.73095703125" y="13.808" text-anchor="middle" fill-opacity="1">0.3</text></g></g></g></g><g id="expressions-13f40521"><g id="sketch-13f40521"><title>Expression 1</title><path fill="#c74440" stroke="none" paint-order="stroke fill markers" d="" fill-opacity="0.4"/><g><path fill="none" stroke="#c74440" class="dcg-svg-curve" paint-order="fill stroke markers" d=" M -0.5 299.46941713699823 L -0.5 299.46941713699823 L 23.5234375 299.274868630829 L 35.92578125 298.92903493342067 L 44.8125 298.4333100474029 L 51.94140625 297.7828481941299 L 57.8984375 296.9875332616953 L 63.171875 296.0267637192088 L 67.859375 294.91587427904034 L 72.15625 293.6382629373885 L 76.0625 292.22201260053225 L 79.7734375 290.61655661549554 L 83.19140625 288.88363215654033 L 86.51171875 286.9394155321276 L 89.63671875 284.8508451493962 L 92.6640625 282.56682770997213 L 95.59375 280.09303879294896 L 98.42578125 277.43849575696623 L 101.16015625 274.6154094306596 L 103.796875 271.6389423815449 L 106.43359375 268.4022586165722 L 108.97265625 265.0309177306005 L 111.51171875 261.40290478560536 L 114.05078125 257.51295836341524 L 116.58984375 253.35762356115399 L 119.12890625 248.9354775704269 L 121.66796875 244.2473475740157 L 124.20703125 239.2965163025837 L 126.74609375 234.08891039829325 L 129.3828125 228.418629482109 L 132.1171875 222.26993103205075 L 134.94921875 215.6333399073985 L 137.87890625 208.50759446864762 L 141.1015625 200.4036400576336 L 144.71484375 191.05027251013925 L 149.40234375 178.6333709527061 L 159.4609375 151.90289012866918 L 162.87890625 143.13557579976936 L 165.80859375 135.88187846994163 L 168.4453125 129.61875079543222 L 170.7890625 124.30352496735543 L 173.03515625 119.46483096656351 L 175.18359375 115.09705821816539 L 177.234375 111.18809021471299 L 179.1875 107.72030532097932 L 181.140625 104.51801767948314 L 182.99609375 101.7357313613943 L 184.8515625 99.21904095531659 L 186.609375 97.08986697814254 L 188.3671875 95.21751732630361 L 190.125 93.609507125491 L 191.8828125 92.27232793762897 L 193.54296875 91.26301837754818 L 195.203125 90.50379683081928 L 196.86328125 89.99742892906806 L 198.5234375 89.74576296564953 L 200.18359375 89.74971865612781 L 201.84375 90.00928153870296 L 203.50390625 90.52350306229442 L 205.1640625 91.29050636153084 L 206.82421875 92.30749766944166 L 208.58203125 93.65267088887299 L 210.33984375 95.26850041929958 L 212.09765625 97.14846414517058 L 213.85546875 99.28501776362123 L 215.7109375 101.80921297285107 L 217.56640625 104.59868176177349 L 219.421875 107.6412496665036 L 221.375 111.10292583031213 L 223.42578125 115.00591051972754 L 225.57421875 119.36791393636054 L 227.8203125 124.2011464878471 L 230.1640625 129.51131638225417 L 232.703125 135.53294230858194 L 235.4375 142.28173717938012 L 238.5625 150.26091395572024 L 242.46875 160.51486616169294 L 250.28125 181.3743614001701 L 255.06640625 193.98956141122054 L 258.6796875 203.26274881198225 L 261.90234375 211.27459099414963 L 264.83203125 218.30219871187361 L 267.6640625 224.83297430416843 L 270.3984375 230.87112965496073 L 273.03515625 236.42864087218607 L 275.57421875 241.52332590661388 L 278.11328125 246.35827156707964 L 280.65234375 250.92874520074264 L 283.19140625 255.23257700191425 L 285.73046875 259.26996341917226 L 288.26953125 263.04325553900435 L 290.80859375 266.5567372235489 L 293.34765625 269.816397545694 L 295.984375 272.94079285853974 L 298.62109375 275.8093074848751 L 301.35546875 278.52552950747497 L 304.1875 281.0752785734752 L 307.1171875 283.44729934694163 L 310.14453125 285.6334757104048 L 313.26953125 287.6289525216233 L 316.58984375 289.4830142224184 L 320.0078125 291.132355449736 L 323.71875 292.6572510285471 L 327.625 293.99951701582165 L 331.82421875 295.1829327118105 L 336.51171875 296.2360702403125 L 341.6875 297.13005958839574 L 347.546875 297.873840516026 L 354.3828125 298.472010078719 L 362.68359375 298.9271206506345 L 373.5234375 299.2450043364988 L 389.63671875 299.43045547285385 L 399.5 299.47033487115925" stroke-linecap="round" stroke-linejoin="round" stroke-miterlimit="10" stroke-width="2.5" stroke-opacity="0.9" stroke-dasharray=""/></g></g></g><g id="labels-13f40521"/></g></svg>