<?xml version="1.0" encoding="utf-8" standalone="no"?>
<!DOCTYPE svg PUBLIC "-//W3C//DTD SVG 1.1//EN"
  "http://www.w3.org/Graphics/SVG/1.1/DTD/svg11.dtd">
<!-- Created with matplotlib (https://matplotlib.org/) -->
<svg height="345.6pt" version="1.1" viewBox="0 0 460.8 345.6" width="460.8pt" xmlns="http://www.w3.org/2000/svg" xmlns:xlink="http://www.w3.org/1999/xlink">
 <metadata>
  <rdf:RDF xmlns:cc="http://creativecommons.org/ns#" xmlns:dc="http://purl.org/dc/elements/1.1/" xmlns:rdf="http://www.w3.org/1999/02/22-rdf-syntax-ns#">
   <cc:Work>
    <dc:type rdf:resource="http://purl.org/dc/dcmitype/StillImage"/>
    <dc:date>2021-03-17T08:16:41.688507</dc:date>
    <dc:format>image/svg+xml</dc:format>
    <dc:creator>
     <cc:Agent>
      <dc:title>Matplotlib v3.3.4, https://matplotlib.org/</dc:title>
     </cc:Agent>
    </dc:creator>
   </cc:Work>
  </rdf:RDF>
 </metadata>
 <defs>
  <style type="text/css">*{stroke-linecap:butt;stroke-linejoin:round;}</style>
 </defs>
 <g id="figure_1">
  <g id="patch_1">
   <path d="M 0 345.6 
L 460.8 345.6 
L 460.8 0 
L 0 0 
z
" style="fill:#ffffff;"/>
  </g>
  <g id="axes_1">
   <g id="patch_2">
    <path d="M 57.6 307.584 
L 414.72 307.584 
L 414.72 41.472 
L 57.6 41.472 
z
" style="fill:#ffffff;"/>
   </g>
   <g id="matplotlib.axis_1">
    <g id="xtick_1">
     <g id="line2d_1">
      <defs>
       <path d="M 0 0 
L 0 3.5 
" id="m053e0920a5" style="stroke:#000000;stroke-width:0.8;"/>
      </defs>
      <g>
       <use style="stroke:#000000;stroke-width:0.8;" x="67.426087" xlink:href="#m053e0920a5" y="307.584"/>
      </g>
     </g>
     <g id="text_1">
      <!-- 60 -->
      <g transform="translate(61.063587 322.182437)scale(0.1 -0.1)">
       <defs>
        <path d="M 33.015625 40.375 
Q 26.375 40.375 22.484375 35.828125 
Q 18.609375 31.296875 18.609375 23.390625 
Q 18.609375 15.53125 22.484375 10.953125 
Q 26.375 6.390625 33.015625 6.390625 
Q 39.65625 6.390625 43.53125 10.953125 
Q 47.40625 15.53125 47.40625 23.390625 
Q 47.40625 31.296875 43.53125 35.828125 
Q 39.65625 40.375 33.015625 40.375 
z
M 52.59375 71.296875 
L 52.59375 62.3125 
Q 48.875 64.0625 45.09375 64.984375 
Q 41.3125 65.921875 37.59375 65.921875 
Q 27.828125 65.921875 22.671875 59.328125 
Q 17.53125 52.734375 16.796875 39.40625 
Q 19.671875 43.65625 24.015625 45.921875 
Q 28.375 48.1875 33.59375 48.1875 
Q 44.578125 48.1875 50.953125 41.515625 
Q 57.328125 34.859375 57.328125 23.390625 
Q 57.328125 12.15625 50.6875 5.359375 
Q 44.046875 -1.421875 33.015625 -1.421875 
Q 20.359375 -1.421875 13.671875 8.265625 
Q 6.984375 17.96875 6.984375 36.375 
Q 6.984375 53.65625 15.1875 63.9375 
Q 23.390625 74.21875 37.203125 74.21875 
Q 40.921875 74.21875 44.703125 73.484375 
Q 48.484375 72.75 52.59375 71.296875 
z
" id="DejaVuSans-54"/>
        <path d="M 31.78125 66.40625 
Q 24.171875 66.40625 20.328125 58.90625 
Q 16.5 51.421875 16.5 36.375 
Q 16.5 21.390625 20.328125 13.890625 
Q 24.171875 6.390625 31.78125 6.390625 
Q 39.453125 6.390625 43.28125 13.890625 
Q 47.125 21.390625 47.125 36.375 
Q 47.125 51.421875 43.28125 58.90625 
Q 39.453125 66.40625 31.78125 66.40625 
z
M 31.78125 74.21875 
Q 44.046875 74.21875 50.515625 64.515625 
Q 56.984375 54.828125 56.984375 36.375 
Q 56.984375 17.96875 50.515625 8.265625 
Q 44.046875 -1.421875 31.78125 -1.421875 
Q 19.53125 -1.421875 13.0625 8.265625 
Q 6.59375 17.96875 6.59375 36.375 
Q 6.59375 54.828125 13.0625 64.515625 
Q 19.53125 74.21875 31.78125 74.21875 
z
" id="DejaVuSans-48"/>
       </defs>
       <use xlink:href="#DejaVuSans-54"/>
       <use x="63.623047" xlink:href="#DejaVuSans-48"/>
      </g>
     </g>
    </g>
    <g id="xtick_2">
     <g id="line2d_2">
      <g>
       <use style="stroke:#000000;stroke-width:0.8;" x="111.122458" xlink:href="#m053e0920a5" y="307.584"/>
      </g>
     </g>
     <g id="text_2">
      <!-- 62 -->
      <g transform="translate(104.759958 322.182437)scale(0.1 -0.1)">
       <defs>
        <path d="M 19.1875 8.296875 
L 53.609375 8.296875 
L 53.609375 0 
L 7.328125 0 
L 7.328125 8.296875 
Q 12.9375 14.109375 22.625 23.890625 
Q 32.328125 33.6875 34.8125 36.53125 
Q 39.546875 41.84375 41.421875 45.53125 
Q 43.3125 49.21875 43.3125 52.78125 
Q 43.3125 58.59375 39.234375 62.25 
Q 35.15625 65.921875 28.609375 65.921875 
Q 23.96875 65.921875 18.8125 64.3125 
Q 13.671875 62.703125 7.8125 59.421875 
L 7.8125 69.390625 
Q 13.765625 71.78125 18.9375 73 
Q 24.125 74.21875 28.421875 74.21875 
Q 39.75 74.21875 46.484375 68.546875 
Q 53.21875 62.890625 53.21875 53.421875 
Q 53.21875 48.921875 51.53125 44.890625 
Q 49.859375 40.875 45.40625 35.40625 
Q 44.1875 33.984375 37.640625 27.21875 
Q 31.109375 20.453125 19.1875 8.296875 
z
" id="DejaVuSans-50"/>
       </defs>
       <use xlink:href="#DejaVuSans-54"/>
       <use x="63.623047" xlink:href="#DejaVuSans-50"/>
      </g>
     </g>
    </g>
    <g id="xtick_3">
     <g id="line2d_3">
      <g>
       <use style="stroke:#000000;stroke-width:0.8;" x="154.818829" xlink:href="#m053e0920a5" y="307.584"/>
      </g>
     </g>
     <g id="text_3">
      <!-- 64 -->
      <g transform="translate(148.456329 322.182437)scale(0.1 -0.1)">
       <defs>
        <path d="M 37.796875 64.3125 
L 12.890625 25.390625 
L 37.796875 25.390625 
z
M 35.203125 72.90625 
L 47.609375 72.90625 
L 47.609375 25.390625 
L 58.015625 25.390625 
L 58.015625 17.1875 
L 47.609375 17.1875 
L 47.609375 0 
L 37.796875 0 
L 37.796875 17.1875 
L 4.890625 17.1875 
L 4.890625 26.703125 
z
" id="DejaVuSans-52"/>
       </defs>
       <use xlink:href="#DejaVuSans-54"/>
       <use x="63.623047" xlink:href="#DejaVuSans-52"/>
      </g>
     </g>
    </g>
    <g id="xtick_4">
     <g id="line2d_4">
      <g>
       <use style="stroke:#000000;stroke-width:0.8;" x="198.5152" xlink:href="#m053e0920a5" y="307.584"/>
      </g>
     </g>
     <g id="text_4">
      <!-- 66 -->
      <g transform="translate(192.1527 322.182437)scale(0.1 -0.1)">
       <use xlink:href="#DejaVuSans-54"/>
       <use x="63.623047" xlink:href="#DejaVuSans-54"/>
      </g>
     </g>
    </g>
    <g id="xtick_5">
     <g id="line2d_5">
      <g>
       <use style="stroke:#000000;stroke-width:0.8;" x="242.211571" xlink:href="#m053e0920a5" y="307.584"/>
      </g>
     </g>
     <g id="text_5">
      <!-- 68 -->
      <g transform="translate(235.849071 322.182437)scale(0.1 -0.1)">
       <defs>
        <path d="M 31.78125 34.625 
Q 24.75 34.625 20.71875 30.859375 
Q 16.703125 27.09375 16.703125 20.515625 
Q 16.703125 13.921875 20.71875 10.15625 
Q 24.75 6.390625 31.78125 6.390625 
Q 38.8125 6.390625 42.859375 10.171875 
Q 46.921875 13.96875 46.921875 20.515625 
Q 46.921875 27.09375 42.890625 30.859375 
Q 38.875 34.625 31.78125 34.625 
z
M 21.921875 38.8125 
Q 15.578125 40.375 12.03125 44.71875 
Q 8.5 49.078125 8.5 55.328125 
Q 8.5 64.0625 14.71875 69.140625 
Q 20.953125 74.21875 31.78125 74.21875 
Q 42.671875 74.21875 48.875 69.140625 
Q 55.078125 64.0625 55.078125 55.328125 
Q 55.078125 49.078125 51.53125 44.71875 
Q 48 40.375 41.703125 38.8125 
Q 48.828125 37.15625 52.796875 32.3125 
Q 56.78125 27.484375 56.78125 20.515625 
Q 56.78125 9.90625 50.3125 4.234375 
Q 43.84375 -1.421875 31.78125 -1.421875 
Q 19.734375 -1.421875 13.25 4.234375 
Q 6.78125 9.90625 6.78125 20.515625 
Q 6.78125 27.484375 10.78125 32.3125 
Q 14.796875 37.15625 21.921875 38.8125 
z
M 18.3125 54.390625 
Q 18.3125 48.734375 21.84375 45.5625 
Q 25.390625 42.390625 31.78125 42.390625 
Q 38.140625 42.390625 41.71875 45.5625 
Q 45.3125 48.734375 45.3125 54.390625 
Q 45.3125 60.0625 41.71875 63.234375 
Q 38.140625 66.40625 31.78125 66.40625 
Q 25.390625 66.40625 21.84375 63.234375 
Q 18.3125 60.0625 18.3125 54.390625 
z
" id="DejaVuSans-56"/>
       </defs>
       <use xlink:href="#DejaVuSans-54"/>
       <use x="63.623047" xlink:href="#DejaVuSans-56"/>
      </g>
     </g>
    </g>
    <g id="xtick_6">
     <g id="line2d_6">
      <g>
       <use style="stroke:#000000;stroke-width:0.8;" x="285.907942" xlink:href="#m053e0920a5" y="307.584"/>
      </g>
     </g>
     <g id="text_6">
      <!-- 70 -->
      <g transform="translate(279.545442 322.182437)scale(0.1 -0.1)">
       <defs>
        <path d="M 8.203125 72.90625 
L 55.078125 72.90625 
L 55.078125 68.703125 
L 28.609375 0 
L 18.3125 0 
L 43.21875 64.59375 
L 8.203125 64.59375 
z
" id="DejaVuSans-55"/>
       </defs>
       <use xlink:href="#DejaVuSans-55"/>
       <use x="63.623047" xlink:href="#DejaVuSans-48"/>
      </g>
     </g>
    </g>
    <g id="xtick_7">
     <g id="line2d_7">
      <g>
       <use style="stroke:#000000;stroke-width:0.8;" x="329.604313" xlink:href="#m053e0920a5" y="307.584"/>
      </g>
     </g>
     <g id="text_7">
      <!-- 72 -->
      <g transform="translate(323.241813 322.182437)scale(0.1 -0.1)">
       <use xlink:href="#DejaVuSans-55"/>
       <use x="63.623047" xlink:href="#DejaVuSans-50"/>
      </g>
     </g>
    </g>
    <g id="xtick_8">
     <g id="line2d_8">
      <g>
       <use style="stroke:#000000;stroke-width:0.8;" x="373.300684" xlink:href="#m053e0920a5" y="307.584"/>
      </g>
     </g>
     <g id="text_8">
      <!-- 74 -->
      <g transform="translate(366.938184 322.182437)scale(0.1 -0.1)">
       <use xlink:href="#DejaVuSans-55"/>
       <use x="63.623047" xlink:href="#DejaVuSans-52"/>
      </g>
     </g>
    </g>
   </g>
   <g id="matplotlib.axis_2">
    <g id="ytick_1">
     <g id="line2d_9">
      <defs>
       <path d="M 0 0 
L -3.5 0 
" id="m2fc84c5f2b" style="stroke:#000000;stroke-width:0.8;"/>
      </defs>
      <g>
       <use style="stroke:#000000;stroke-width:0.8;" x="57.6" xlink:href="#m2fc84c5f2b" y="295.336692"/>
      </g>
     </g>
     <g id="text_9">
      <!-- 0 -->
      <g transform="translate(44.2375 299.13591)scale(0.1 -0.1)">
       <use xlink:href="#DejaVuSans-48"/>
      </g>
     </g>
    </g>
    <g id="ytick_2">
     <g id="line2d_10">
      <g>
       <use style="stroke:#000000;stroke-width:0.8;" x="57.6" xlink:href="#m2fc84c5f2b" y="264.321926"/>
      </g>
     </g>
     <g id="text_10">
      <!-- 10 -->
      <g transform="translate(37.875 268.121145)scale(0.1 -0.1)">
       <defs>
        <path d="M 12.40625 8.296875 
L 28.515625 8.296875 
L 28.515625 63.921875 
L 10.984375 60.40625 
L 10.984375 69.390625 
L 28.421875 72.90625 
L 38.28125 72.90625 
L 38.28125 8.296875 
L 54.390625 8.296875 
L 54.390625 0 
L 12.40625 0 
z
" id="DejaVuSans-49"/>
       </defs>
       <use xlink:href="#DejaVuSans-49"/>
       <use x="63.623047" xlink:href="#DejaVuSans-48"/>
      </g>
     </g>
    </g>
    <g id="ytick_3">
     <g id="line2d_11">
      <g>
       <use style="stroke:#000000;stroke-width:0.8;" x="57.6" xlink:href="#m2fc84c5f2b" y="233.307161"/>
      </g>
     </g>
     <g id="text_11">
      <!-- 20 -->
      <g transform="translate(37.875 237.10638)scale(0.1 -0.1)">
       <use xlink:href="#DejaVuSans-50"/>
       <use x="63.623047" xlink:href="#DejaVuSans-48"/>
      </g>
     </g>
    </g>
    <g id="ytick_4">
     <g id="line2d_12">
      <g>
       <use style="stroke:#000000;stroke-width:0.8;" x="57.6" xlink:href="#m2fc84c5f2b" y="202.292395"/>
      </g>
     </g>
     <g id="text_12">
      <!-- 30 -->
      <g transform="translate(37.875 206.091614)scale(0.1 -0.1)">
       <defs>
        <path d="M 40.578125 39.3125 
Q 47.65625 37.796875 51.625 33 
Q 55.609375 28.21875 55.609375 21.1875 
Q 55.609375 10.40625 48.1875 4.484375 
Q 40.765625 -1.421875 27.09375 -1.421875 
Q 22.515625 -1.421875 17.65625 -0.515625 
Q 12.796875 0.390625 7.625 2.203125 
L 7.625 11.71875 
Q 11.71875 9.328125 16.59375 8.109375 
Q 21.484375 6.890625 26.8125 6.890625 
Q 36.078125 6.890625 40.9375 10.546875 
Q 45.796875 14.203125 45.796875 21.1875 
Q 45.796875 27.640625 41.28125 31.265625 
Q 36.765625 34.90625 28.71875 34.90625 
L 20.21875 34.90625 
L 20.21875 43.015625 
L 29.109375 43.015625 
Q 36.375 43.015625 40.234375 45.921875 
Q 44.09375 48.828125 44.09375 54.296875 
Q 44.09375 59.90625 40.109375 62.90625 
Q 36.140625 65.921875 28.71875 65.921875 
Q 24.65625 65.921875 20.015625 65.03125 
Q 15.375 64.15625 9.8125 62.3125 
L 9.8125 71.09375 
Q 15.4375 72.65625 20.34375 73.4375 
Q 25.25 74.21875 29.59375 74.21875 
Q 40.828125 74.21875 47.359375 69.109375 
Q 53.90625 64.015625 53.90625 55.328125 
Q 53.90625 49.265625 50.4375 45.09375 
Q 46.96875 40.921875 40.578125 39.3125 
z
" id="DejaVuSans-51"/>
       </defs>
       <use xlink:href="#DejaVuSans-51"/>
       <use x="63.623047" xlink:href="#DejaVuSans-48"/>
      </g>
     </g>
    </g>
    <g id="ytick_5">
     <g id="line2d_13">
      <g>
       <use style="stroke:#000000;stroke-width:0.8;" x="57.6" xlink:href="#m2fc84c5f2b" y="171.27763"/>
      </g>
     </g>
     <g id="text_13">
      <!-- 40 -->
      <g transform="translate(37.875 175.076849)scale(0.1 -0.1)">
       <use xlink:href="#DejaVuSans-52"/>
       <use x="63.623047" xlink:href="#DejaVuSans-48"/>
      </g>
     </g>
    </g>
    <g id="ytick_6">
     <g id="line2d_14">
      <g>
       <use style="stroke:#000000;stroke-width:0.8;" x="57.6" xlink:href="#m2fc84c5f2b" y="140.262865"/>
      </g>
     </g>
     <g id="text_14">
      <!-- 50 -->
      <g transform="translate(37.875 144.062083)scale(0.1 -0.1)">
       <defs>
        <path d="M 10.796875 72.90625 
L 49.515625 72.90625 
L 49.515625 64.59375 
L 19.828125 64.59375 
L 19.828125 46.734375 
Q 21.96875 47.46875 24.109375 47.828125 
Q 26.265625 48.1875 28.421875 48.1875 
Q 40.625 48.1875 47.75 41.5 
Q 54.890625 34.8125 54.890625 23.390625 
Q 54.890625 11.625 47.5625 5.09375 
Q 40.234375 -1.421875 26.90625 -1.421875 
Q 22.3125 -1.421875 17.546875 -0.640625 
Q 12.796875 0.140625 7.71875 1.703125 
L 7.71875 11.625 
Q 12.109375 9.234375 16.796875 8.0625 
Q 21.484375 6.890625 26.703125 6.890625 
Q 35.15625 6.890625 40.078125 11.328125 
Q 45.015625 15.765625 45.015625 23.390625 
Q 45.015625 31 40.078125 35.4375 
Q 35.15625 39.890625 26.703125 39.890625 
Q 22.75 39.890625 18.8125 39.015625 
Q 14.890625 38.140625 10.796875 36.28125 
z
" id="DejaVuSans-53"/>
       </defs>
       <use xlink:href="#DejaVuSans-53"/>
       <use x="63.623047" xlink:href="#DejaVuSans-48"/>
      </g>
     </g>
    </g>
    <g id="ytick_7">
     <g id="line2d_15">
      <g>
       <use style="stroke:#000000;stroke-width:0.8;" x="57.6" xlink:href="#m2fc84c5f2b" y="109.248099"/>
      </g>
     </g>
     <g id="text_15">
      <!-- 60 -->
      <g transform="translate(37.875 113.047318)scale(0.1 -0.1)">
       <use xlink:href="#DejaVuSans-54"/>
       <use x="63.623047" xlink:href="#DejaVuSans-48"/>
      </g>
     </g>
    </g>
    <g id="ytick_8">
     <g id="line2d_16">
      <g>
       <use style="stroke:#000000;stroke-width:0.8;" x="57.6" xlink:href="#m2fc84c5f2b" y="78.233334"/>
      </g>
     </g>
     <g id="text_16">
      <!-- 70 -->
      <g transform="translate(37.875 82.032553)scale(0.1 -0.1)">
       <use xlink:href="#DejaVuSans-55"/>
       <use x="63.623047" xlink:href="#DejaVuSans-48"/>
      </g>
     </g>
    </g>
    <g id="ytick_9">
     <g id="line2d_17">
      <g>
       <use style="stroke:#000000;stroke-width:0.8;" x="57.6" xlink:href="#m2fc84c5f2b" y="47.218568"/>
      </g>
     </g>
     <g id="text_17">
      <!-- 80 -->
      <g transform="translate(37.875 51.017787)scale(0.1 -0.1)">
       <use xlink:href="#DejaVuSans-56"/>
       <use x="63.623047" xlink:href="#DejaVuSans-48"/>
      </g>
     </g>
    </g>
   </g>
   <g id="line2d_18">
    <path clip-path="url(#p334dfe084f)" d="M 73.832727 294.392303 
L 79.0324 294.973361 
L 84.232072 295.33745 
L 89.431744 295.48457 
L 94.631417 295.414721 
L 99.831089 295.127904 
L 105.030762 294.624118 
L 109.905455 294.10231 
L 110.555414 294.19467 
L 114.455168 293.627751 
L 115.105127 293.592824 
L 118.029943 293.048742 
L 118.354922 292.860703 
L 118.679902 292.809731 
L 119.004881 292.911584 
L 120.629779 292.527647 
L 120.954758 292.496492 
L 121.604717 292.148856 
L 122.579656 291.74847 
L 122.904636 291.698568 
L 123.554595 291.336317 
L 124.204554 291.233162 
L 124.529533 291.271424 
L 125.504472 290.927742 
L 126.154431 290.778495 
L 126.80439 290.468942 
L 128.754267 289.915625 
L 129.079247 289.667353 
L 129.404226 289.575596 
L 130.054185 289.054834 
L 131.029124 288.889845 
L 133.953939 287.321532 
L 134.603898 287.095503 
L 135.578837 286.220421 
L 138.503653 284.475531 
L 139.153612 283.748832 
L 139.478591 283.630186 
L 140.12855 282.976548 
L 141.103489 282.107733 
L 141.753448 281.429822 
L 142.078428 281.134697 
L 142.403407 281.032734 
L 143.053366 280.180001 
L 144.028305 279.322611 
L 144.353284 278.850708 
L 145.003243 278.298746 
L 145.978182 277.226732 
L 146.303161 277.094469 
L 147.603079 275.383357 
L 148.578018 274.553973 
L 149.227977 273.872885 
L 149.877936 273.501424 
L 151.177854 271.999494 
L 151.827813 271.210977 
L 152.477772 270.293507 
L 153.127731 269.598074 
L 154.10267 268.124581 
L 154.427649 267.80074 
L 154.752629 267.097183 
L 156.702506 264.436088 
L 157.352465 263.320393 
L 157.677445 262.89407 
L 158.327404 261.730477 
L 158.652383 261.403705 
L 158.977363 260.620369 
L 161.252219 257.213352 
L 162.552138 254.699883 
L 163.202097 253.339182 
L 164.177035 251.228003 
L 165.801933 248.812094 
L 166.126912 248.222449 
L 166.776871 246.73793 
L 169.376708 242.019859 
L 169.701687 241.136564 
L 170.026667 240.704082 
L 171.976544 236.569972 
L 172.301523 236.220617 
L 173.601441 233.742131 
L 174.57638 231.11878 
L 174.90136 230.597217 
L 176.201278 226.846053 
L 176.526257 225.967781 
L 176.851237 225.417584 
L 177.501196 223.94233 
L 178.476134 221.678437 
L 179.126093 219.870011 
L 179.451073 219.264929 
L 180.750991 215.143157 
L 181.075971 214.413961 
L 182.050909 211.356682 
L 183.025848 208.927277 
L 183.675807 206.802488 
L 184.000786 205.927961 
L 184.650745 203.545667 
L 184.975725 202.591194 
L 185.950663 198.96789 
L 187.250581 194.776991 
L 190.175397 185.255503 
L 191.150336 182.616733 
L 192.125274 178.923438 
L 192.775233 177.12616 
L 194.400131 171.153755 
L 195.700049 166.592874 
L 196.025029 165.796039 
L 196.350008 164.384477 
L 198.299885 158.62145 
L 202.19964 143.958032 
L 202.524619 143.078039 
L 203.174578 140.489559 
L 203.824537 137.885517 
L 206.424373 128.356477 
L 207.074333 126.343757 
L 208.049271 122.542541 
L 209.999148 117.715674 
L 211.299066 113.632165 
L 211.624046 112.230164 
L 211.949025 111.32648 
L 212.598984 109.142503 
L 215.5238 98.882263 
L 216.173759 96.759299 
L 216.498739 95.95267 
L 216.823718 94.635146 
L 217.148698 94.07522 
L 218.773595 89.373084 
L 219.423554 88.389127 
L 220.073514 86.547635 
L 220.398493 85.723697 
L 220.723473 84.395476 
L 222.67335 79.871248 
L 222.998329 79.304086 
L 223.648288 77.894783 
L 224.623227 75.869475 
L 225.273186 74.471135 
L 226.573104 71.303748 
L 227.223063 69.833662 
L 227.548043 69.554995 
L 228.198002 68.56377 
L 228.847961 67.386945 
L 229.17294 66.859964 
L 229.49792 66.639541 
L 229.822899 66.002128 
L 230.147879 65.773355 
L 231.447797 63.111627 
L 232.747715 61.280204 
L 233.072695 61.390321 
L 233.397674 60.785993 
L 234.697592 59.698574 
L 235.022572 59.376018 
L 235.347551 58.54169 
L 235.672531 58.340396 
L 235.99751 57.940065 
L 236.32249 57.825246 
L 236.972449 57.210862 
L 237.297428 57.140445 
L 237.622408 56.488662 
L 237.947387 56.136316 
L 238.597346 55.716044 
L 239.247305 54.686711 
L 239.572285 54.92855 
L 239.897265 54.827697 
L 240.222244 54.430533 
L 240.872203 54.194421 
L 241.197183 54.374651 
L 241.522162 54.353605 
L 242.172121 53.690136 
L 242.497101 53.974154 
L 242.82208 53.769744 
L 243.14706 53.976804 
L 243.797019 54.009559 
L 244.121998 54.367096 
L 244.446978 54.264573 
L 244.771957 53.594757 
L 245.096937 53.568 
L 245.746896 54.061202 
L 246.396855 54.164064 
L 246.721835 54.301641 
L 247.046814 54.64591 
L 247.371794 54.630847 
L 248.346732 55.334488 
L 248.671712 55.822615 
L 249.321671 55.981004 
L 249.64665 56.460496 
L 250.296609 56.648503 
L 250.946568 58.292847 
L 251.271548 58.663271 
L 251.596527 58.803363 
L 252.246486 59.329309 
L 252.571466 60.203619 
L 253.221425 60.94985 
L 253.871384 62.553934 
L 254.196364 63.574028 
L 254.846323 64.553845 
L 255.171302 64.80294 
L 255.496282 65.497601 
L 255.821261 65.826715 
L 256.146241 65.987252 
L 256.47122 66.421425 
L 256.7962 67.396725 
L 257.121179 68.008374 
L 257.446159 69.000305 
L 258.096118 70.294777 
L 258.746077 72.372738 
L 259.396036 73.360797 
L 260.370975 75.713082 
L 261.020934 77.121723 
L 261.345913 77.46358 
L 261.670893 78.429028 
L 263.62077 81.945464 
L 264.270729 84.001519 
L 265.895627 88.842192 
L 267.520524 93.399003 
L 267.845504 94.124722 
L 269.470401 100.005024 
L 270.12036 102.53788 
L 270.770319 105.042744 
L 271.420278 107.732852 
L 272.720197 111.859117 
L 273.370156 114.532445 
L 274.670074 117.858725 
L 274.995053 119.008748 
L 275.320033 119.668522 
L 276.294971 122.467812 
L 277.594889 127.400667 
L 278.244848 129.57479 
L 278.894808 132.294905 
L 282.144603 144.363831 
L 282.794562 146.305069 
L 283.444521 148.578705 
L 283.7695 149.273214 
L 284.09448 150.846966 
L 284.744439 152.268187 
L 285.719378 155.900945 
L 286.369337 158.651084 
L 287.994234 164.040502 
L 288.319214 164.825158 
L 288.969173 167.036303 
L 289.944111 169.900815 
L 291.569009 174.918033 
L 292.218968 177.154231 
L 292.868927 179.343818 
L 296.768681 192.010783 
L 297.74362 195.489341 
L 299.043538 198.794445 
L 300.018477 201.309879 
L 300.993415 204.691512 
L 301.968354 207.537008 
L 304.24321 213.678366 
L 304.56819 215.052345 
L 304.89317 215.70288 
L 306.193088 219.716854 
L 306.843047 221.356489 
L 307.493006 223.50868 
L 309.767862 228.404419 
L 310.417821 230.670851 
L 311.39276 233.014459 
L 312.042719 234.549458 
L 312.692678 236.255962 
L 313.992596 238.624223 
L 314.642555 240.348557 
L 315.292514 241.9467 
L 315.617494 242.940289 
L 316.592432 244.578213 
L 318.54231 249.407862 
L 320.167207 252.073174 
L 321.792105 255.55411 
L 323.417002 257.978513 
L 323.741982 258.304237 
L 324.391941 259.389951 
L 325.36688 261.608327 
L 325.691859 261.890623 
L 328.941654 268.168817 
L 329.266634 268.401046 
L 330.891532 271.01215 
L 331.216511 271.3336 
L 331.541491 271.848751 
L 331.86647 272.590221 
L 332.19145 272.927544 
L 333.816347 275.420438 
L 335.441245 276.81393 
L 335.766224 277.235362 
L 336.741163 277.84617 
L 337.716102 278.997588 
L 338.041081 279.442877 
L 338.69104 280.040528 
L 339.01602 280.427272 
L 339.665979 280.766429 
L 339.990958 281.228642 
L 340.315938 281.354518 
L 341.615856 282.560458 
L 341.940835 282.720653 
L 342.265815 283.028493 
L 342.915774 283.277573 
L 343.890713 284.018825 
L 344.540672 284.246511 
L 345.190631 284.829134 
L 345.84059 285.038792 
L 347.465487 286.074243 
L 347.790467 286.145608 
L 348.440426 286.78641 
L 349.090385 287.248392 
L 349.415364 287.339698 
L 350.390303 288.132562 
L 350.715283 288.082659 
L 351.690221 288.270873 
L 352.015201 288.307814 
L 352.990139 288.788744 
L 355.264996 289.700432 
L 356.239934 290.1061 
L 356.889894 290.542923 
L 357.864832 290.897937 
L 359.16475 291.092797 
L 359.48973 291.36424 
L 360.464668 291.625906 
L 364.689402 292.273333 
L 365.339361 292.446665 
L 365.98932 292.45329 
L 370.214054 293.405309 
L 374.438788 294.134046 
L 378.663522 294.639502 
L 382.888256 294.921677 
L 387.112989 294.980571 
L 391.337723 294.816183 
L 395.562457 294.428513 
L 398.487273 294.029329 
L 398.487273 294.029329 
" style="fill:none;stroke:#1f77b4;stroke-linecap:square;stroke-width:1.5;"/>
   </g>
   <g id="patch_3">
    <path d="M 57.6 307.584 
L 57.6 41.472 
" style="fill:none;stroke:#000000;stroke-linecap:square;stroke-linejoin:miter;stroke-width:0.8;"/>
   </g>
   <g id="patch_4">
    <path d="M 414.72 307.584 
L 414.72 41.472 
" style="fill:none;stroke:#000000;stroke-linecap:square;stroke-linejoin:miter;stroke-width:0.8;"/>
   </g>
   <g id="patch_5">
    <path d="M 57.6 307.584 
L 414.72 307.584 
" style="fill:none;stroke:#000000;stroke-linecap:square;stroke-linejoin:miter;stroke-width:0.8;"/>
   </g>
   <g id="patch_6">
    <path d="M 57.6 41.472 
L 414.72 41.472 
" style="fill:none;stroke:#000000;stroke-linecap:square;stroke-linejoin:miter;stroke-width:0.8;"/>
   </g>
  </g>
 </g>
 <defs>
  <clipPath id="p334dfe084f">
   <rect height="266.112" width="357.12" x="57.6" y="41.472"/>
  </clipPath>
 </defs>
</svg>
