<?xml version="1.0" encoding="utf-8" standalone="no"?>
<!DOCTYPE svg PUBLIC "-//W3C//DTD SVG 1.1//EN"
  "http://www.w3.org/Graphics/SVG/1.1/DTD/svg11.dtd">
<!-- Created with matplotlib (https://matplotlib.org/) -->
<svg height="345.6pt" version="1.1" viewBox="0 0 460.8 345.6" width="460.8pt" xmlns="http://www.w3.org/2000/svg" xmlns:xlink="http://www.w3.org/1999/xlink">
 <metadata>
  <rdf:RDF xmlns:cc="http://creativecommons.org/ns#" xmlns:dc="http://purl.org/dc/elements/1.1/" xmlns:rdf="http://www.w3.org/1999/02/22-rdf-syntax-ns#">
   <cc:Work>
    <dc:type rdf:resource="http://purl.org/dc/dcmitype/StillImage"/>
    <dc:date>2021-03-17T07:31:41.797320</dc:date>
    <dc:format>image/svg+xml</dc:format>
    <dc:creator>
     <cc:Agent>
      <dc:title>Matplotlib v3.3.4, https://matplotlib.org/</dc:title>
     </cc:Agent>
    </dc:creator>
   </cc:Work>
  </rdf:RDF>
 </metadata>
 <defs>
  <style type="text/css">*{stroke-linecap:butt;stroke-linejoin:round;}</style>
 </defs>
 <g id="figure_1">
  <g id="patch_1">
   <path d="M 0 345.6 
L 460.8 345.6 
L 460.8 0 
L 0 0 
z
" style="fill:#ffffff;"/>
  </g>
  <g id="axes_1">
   <g id="patch_2">
    <path d="M 57.6 307.584 
L 414.72 307.584 
L 414.72 41.472 
L 57.6 41.472 
z
" style="fill:#ffffff;"/>
   </g>
   <g id="matplotlib.axis_1">
    <g id="xtick_1">
     <g id="line2d_1">
      <defs>
       <path d="M 0 0 
L 0 3.5 
" id="mc9f4078d23" style="stroke:#000000;stroke-width:0.8;"/>
      </defs>
      <g>
       <use style="stroke:#000000;stroke-width:0.8;" x="67.426087" xlink:href="#mc9f4078d23" y="307.584"/>
      </g>
     </g>
     <g id="text_1">
      <!-- 60 -->
      <g transform="translate(61.063587 322.182437)scale(0.1 -0.1)">
       <defs>
        <path d="M 33.015625 40.375 
Q 26.375 40.375 22.484375 35.828125 
Q 18.609375 31.296875 18.609375 23.390625 
Q 18.609375 15.53125 22.484375 10.953125 
Q 26.375 6.390625 33.015625 6.390625 
Q 39.65625 6.390625 43.53125 10.953125 
Q 47.40625 15.53125 47.40625 23.390625 
Q 47.40625 31.296875 43.53125 35.828125 
Q 39.65625 40.375 33.015625 40.375 
z
M 52.59375 71.296875 
L 52.59375 62.3125 
Q 48.875 64.0625 45.09375 64.984375 
Q 41.3125 65.921875 37.59375 65.921875 
Q 27.828125 65.921875 22.671875 59.328125 
Q 17.53125 52.734375 16.796875 39.40625 
Q 19.671875 43.65625 24.015625 45.921875 
Q 28.375 48.1875 33.59375 48.1875 
Q 44.578125 48.1875 50.953125 41.515625 
Q 57.328125 34.859375 57.328125 23.390625 
Q 57.328125 12.15625 50.6875 5.359375 
Q 44.046875 -1.421875 33.015625 -1.421875 
Q 20.359375 -1.421875 13.671875 8.265625 
Q 6.984375 17.96875 6.984375 36.375 
Q 6.984375 53.65625 15.1875 63.9375 
Q 23.390625 74.21875 37.203125 74.21875 
Q 40.921875 74.21875 44.703125 73.484375 
Q 48.484375 72.75 52.59375 71.296875 
z
" id="DejaVuSans-54"/>
        <path d="M 31.78125 66.40625 
Q 24.171875 66.40625 20.328125 58.90625 
Q 16.5 51.421875 16.5 36.375 
Q 16.5 21.390625 20.328125 13.890625 
Q 24.171875 6.390625 31.78125 6.390625 
Q 39.453125 6.390625 43.28125 13.890625 
Q 47.125 21.390625 47.125 36.375 
Q 47.125 51.421875 43.28125 58.90625 
Q 39.453125 66.40625 31.78125 66.40625 
z
M 31.78125 74.21875 
Q 44.046875 74.21875 50.515625 64.515625 
Q 56.984375 54.828125 56.984375 36.375 
Q 56.984375 17.96875 50.515625 8.265625 
Q 44.046875 -1.421875 31.78125 -1.421875 
Q 19.53125 -1.421875 13.0625 8.265625 
Q 6.59375 17.96875 6.59375 36.375 
Q 6.59375 54.828125 13.0625 64.515625 
Q 19.53125 74.21875 31.78125 74.21875 
z
" id="DejaVuSans-48"/>
       </defs>
       <use xlink:href="#DejaVuSans-54"/>
       <use x="63.623047" xlink:href="#DejaVuSans-48"/>
      </g>
     </g>
    </g>
    <g id="xtick_2">
     <g id="line2d_2">
      <g>
       <use style="stroke:#000000;stroke-width:0.8;" x="111.122458" xlink:href="#mc9f4078d23" y="307.584"/>
      </g>
     </g>
     <g id="text_2">
      <!-- 62 -->
      <g transform="translate(104.759958 322.182437)scale(0.1 -0.1)">
       <defs>
        <path d="M 19.1875 8.296875 
L 53.609375 8.296875 
L 53.609375 0 
L 7.328125 0 
L 7.328125 8.296875 
Q 12.9375 14.109375 22.625 23.890625 
Q 32.328125 33.6875 34.8125 36.53125 
Q 39.546875 41.84375 41.421875 45.53125 
Q 43.3125 49.21875 43.3125 52.78125 
Q 43.3125 58.59375 39.234375 62.25 
Q 35.15625 65.921875 28.609375 65.921875 
Q 23.96875 65.921875 18.8125 64.3125 
Q 13.671875 62.703125 7.8125 59.421875 
L 7.8125 69.390625 
Q 13.765625 71.78125 18.9375 73 
Q 24.125 74.21875 28.421875 74.21875 
Q 39.75 74.21875 46.484375 68.546875 
Q 53.21875 62.890625 53.21875 53.421875 
Q 53.21875 48.921875 51.53125 44.890625 
Q 49.859375 40.875 45.40625 35.40625 
Q 44.1875 33.984375 37.640625 27.21875 
Q 31.109375 20.453125 19.1875 8.296875 
z
" id="DejaVuSans-50"/>
       </defs>
       <use xlink:href="#DejaVuSans-54"/>
       <use x="63.623047" xlink:href="#DejaVuSans-50"/>
      </g>
     </g>
    </g>
    <g id="xtick_3">
     <g id="line2d_3">
      <g>
       <use style="stroke:#000000;stroke-width:0.8;" x="154.818829" xlink:href="#mc9f4078d23" y="307.584"/>
      </g>
     </g>
     <g id="text_3">
      <!-- 64 -->
      <g transform="translate(148.456329 322.182437)scale(0.1 -0.1)">
       <defs>
        <path d="M 37.796875 64.3125 
L 12.890625 25.390625 
L 37.796875 25.390625 
z
M 35.203125 72.90625 
L 47.609375 72.90625 
L 47.609375 25.390625 
L 58.015625 25.390625 
L 58.015625 17.1875 
L 47.609375 17.1875 
L 47.609375 0 
L 37.796875 0 
L 37.796875 17.1875 
L 4.890625 17.1875 
L 4.890625 26.703125 
z
" id="DejaVuSans-52"/>
       </defs>
       <use xlink:href="#DejaVuSans-54"/>
       <use x="63.623047" xlink:href="#DejaVuSans-52"/>
      </g>
     </g>
    </g>
    <g id="xtick_4">
     <g id="line2d_4">
      <g>
       <use style="stroke:#000000;stroke-width:0.8;" x="198.5152" xlink:href="#mc9f4078d23" y="307.584"/>
      </g>
     </g>
     <g id="text_4">
      <!-- 66 -->
      <g transform="translate(192.1527 322.182437)scale(0.1 -0.1)">
       <use xlink:href="#DejaVuSans-54"/>
       <use x="63.623047" xlink:href="#DejaVuSans-54"/>
      </g>
     </g>
    </g>
    <g id="xtick_5">
     <g id="line2d_5">
      <g>
       <use style="stroke:#000000;stroke-width:0.8;" x="242.211571" xlink:href="#mc9f4078d23" y="307.584"/>
      </g>
     </g>
     <g id="text_5">
      <!-- 68 -->
      <g transform="translate(235.849071 322.182437)scale(0.1 -0.1)">
       <defs>
        <path d="M 31.78125 34.625 
Q 24.75 34.625 20.71875 30.859375 
Q 16.703125 27.09375 16.703125 20.515625 
Q 16.703125 13.921875 20.71875 10.15625 
Q 24.75 6.390625 31.78125 6.390625 
Q 38.8125 6.390625 42.859375 10.171875 
Q 46.921875 13.96875 46.921875 20.515625 
Q 46.921875 27.09375 42.890625 30.859375 
Q 38.875 34.625 31.78125 34.625 
z
M 21.921875 38.8125 
Q 15.578125 40.375 12.03125 44.71875 
Q 8.5 49.078125 8.5 55.328125 
Q 8.5 64.0625 14.71875 69.140625 
Q 20.953125 74.21875 31.78125 74.21875 
Q 42.671875 74.21875 48.875 69.140625 
Q 55.078125 64.0625 55.078125 55.328125 
Q 55.078125 49.078125 51.53125 44.71875 
Q 48 40.375 41.703125 38.8125 
Q 48.828125 37.15625 52.796875 32.3125 
Q 56.78125 27.484375 56.78125 20.515625 
Q 56.78125 9.90625 50.3125 4.234375 
Q 43.84375 -1.421875 31.78125 -1.421875 
Q 19.734375 -1.421875 13.25 4.234375 
Q 6.78125 9.90625 6.78125 20.515625 
Q 6.78125 27.484375 10.78125 32.3125 
Q 14.796875 37.15625 21.921875 38.8125 
z
M 18.3125 54.390625 
Q 18.3125 48.734375 21.84375 45.5625 
Q 25.390625 42.390625 31.78125 42.390625 
Q 38.140625 42.390625 41.71875 45.5625 
Q 45.3125 48.734375 45.3125 54.390625 
Q 45.3125 60.0625 41.71875 63.234375 
Q 38.140625 66.40625 31.78125 66.40625 
Q 25.390625 66.40625 21.84375 63.234375 
Q 18.3125 60.0625 18.3125 54.390625 
z
" id="DejaVuSans-56"/>
       </defs>
       <use xlink:href="#DejaVuSans-54"/>
       <use x="63.623047" xlink:href="#DejaVuSans-56"/>
      </g>
     </g>
    </g>
    <g id="xtick_6">
     <g id="line2d_6">
      <g>
       <use style="stroke:#000000;stroke-width:0.8;" x="285.907942" xlink:href="#mc9f4078d23" y="307.584"/>
      </g>
     </g>
     <g id="text_6">
      <!-- 70 -->
      <g transform="translate(279.545442 322.182437)scale(0.1 -0.1)">
       <defs>
        <path d="M 8.203125 72.90625 
L 55.078125 72.90625 
L 55.078125 68.703125 
L 28.609375 0 
L 18.3125 0 
L 43.21875 64.59375 
L 8.203125 64.59375 
z
" id="DejaVuSans-55"/>
       </defs>
       <use xlink:href="#DejaVuSans-55"/>
       <use x="63.623047" xlink:href="#DejaVuSans-48"/>
      </g>
     </g>
    </g>
    <g id="xtick_7">
     <g id="line2d_7">
      <g>
       <use style="stroke:#000000;stroke-width:0.8;" x="329.604313" xlink:href="#mc9f4078d23" y="307.584"/>
      </g>
     </g>
     <g id="text_7">
      <!-- 72 -->
      <g transform="translate(323.241813 322.182437)scale(0.1 -0.1)">
       <use xlink:href="#DejaVuSans-55"/>
       <use x="63.623047" xlink:href="#DejaVuSans-50"/>
      </g>
     </g>
    </g>
    <g id="xtick_8">
     <g id="line2d_8">
      <g>
       <use style="stroke:#000000;stroke-width:0.8;" x="373.300684" xlink:href="#mc9f4078d23" y="307.584"/>
      </g>
     </g>
     <g id="text_8">
      <!-- 74 -->
      <g transform="translate(366.938184 322.182437)scale(0.1 -0.1)">
       <use xlink:href="#DejaVuSans-55"/>
       <use x="63.623047" xlink:href="#DejaVuSans-52"/>
      </g>
     </g>
    </g>
   </g>
   <g id="matplotlib.axis_2">
    <g id="ytick_1">
     <g id="line2d_9">
      <defs>
       <path d="M 0 0 
L -3.5 0 
" id="m8c09dc2e5b" style="stroke:#000000;stroke-width:0.8;"/>
      </defs>
      <g>
       <use style="stroke:#000000;stroke-width:0.8;" x="57.6" xlink:href="#m8c09dc2e5b" y="295.488"/>
      </g>
     </g>
     <g id="text_9">
      <!-- 0 -->
      <g transform="translate(44.2375 299.287219)scale(0.1 -0.1)">
       <use xlink:href="#DejaVuSans-48"/>
      </g>
     </g>
    </g>
    <g id="ytick_2">
     <g id="line2d_10">
      <g>
       <use style="stroke:#000000;stroke-width:0.8;" x="57.6" xlink:href="#m8c09dc2e5b" y="246.116571"/>
      </g>
     </g>
     <g id="text_10">
      <!-- 20 -->
      <g transform="translate(37.875 249.91579)scale(0.1 -0.1)">
       <use xlink:href="#DejaVuSans-50"/>
       <use x="63.623047" xlink:href="#DejaVuSans-48"/>
      </g>
     </g>
    </g>
    <g id="ytick_3">
     <g id="line2d_11">
      <g>
       <use style="stroke:#000000;stroke-width:0.8;" x="57.6" xlink:href="#m8c09dc2e5b" y="196.745143"/>
      </g>
     </g>
     <g id="text_11">
      <!-- 40 -->
      <g transform="translate(37.875 200.544362)scale(0.1 -0.1)">
       <use xlink:href="#DejaVuSans-52"/>
       <use x="63.623047" xlink:href="#DejaVuSans-48"/>
      </g>
     </g>
    </g>
    <g id="ytick_4">
     <g id="line2d_12">
      <g>
       <use style="stroke:#000000;stroke-width:0.8;" x="57.6" xlink:href="#m8c09dc2e5b" y="147.373714"/>
      </g>
     </g>
     <g id="text_12">
      <!-- 60 -->
      <g transform="translate(37.875 151.172933)scale(0.1 -0.1)">
       <use xlink:href="#DejaVuSans-54"/>
       <use x="63.623047" xlink:href="#DejaVuSans-48"/>
      </g>
     </g>
    </g>
    <g id="ytick_5">
     <g id="line2d_13">
      <g>
       <use style="stroke:#000000;stroke-width:0.8;" x="57.6" xlink:href="#m8c09dc2e5b" y="98.002286"/>
      </g>
     </g>
     <g id="text_13">
      <!-- 80 -->
      <g transform="translate(37.875 101.801504)scale(0.1 -0.1)">
       <use xlink:href="#DejaVuSans-56"/>
       <use x="63.623047" xlink:href="#DejaVuSans-48"/>
      </g>
     </g>
    </g>
    <g id="ytick_6">
     <g id="line2d_14">
      <g>
       <use style="stroke:#000000;stroke-width:0.8;" x="57.6" xlink:href="#m8c09dc2e5b" y="48.630857"/>
      </g>
     </g>
     <g id="text_14">
      <!-- 100 -->
      <g transform="translate(31.5125 52.430076)scale(0.1 -0.1)">
       <defs>
        <path d="M 12.40625 8.296875 
L 28.515625 8.296875 
L 28.515625 63.921875 
L 10.984375 60.40625 
L 10.984375 69.390625 
L 28.421875 72.90625 
L 38.28125 72.90625 
L 38.28125 8.296875 
L 54.390625 8.296875 
L 54.390625 0 
L 12.40625 0 
z
" id="DejaVuSans-49"/>
       </defs>
       <use xlink:href="#DejaVuSans-49"/>
       <use x="63.623047" xlink:href="#DejaVuSans-48"/>
       <use x="127.246094" xlink:href="#DejaVuSans-48"/>
      </g>
     </g>
    </g>
   </g>
   <g id="line2d_15">
    <path clip-path="url(#p71f453fb0e)" d="M 73.832727 293.019429 
L 74.157707 295.488 
L 80.657297 295.488 
L 80.982277 293.019429 
L 81.307256 295.488 
L 84.882031 295.488 
L 85.207011 293.019429 
L 85.53199 295.488 
L 86.181949 295.488 
L 86.506929 290.550857 
L 86.831908 295.488 
L 95.606355 295.488 
L 95.931335 293.019429 
L 96.256314 295.488 
L 97.881212 295.488 
L 98.206192 293.019429 
L 98.531171 295.488 
L 101.780966 295.488 
L 102.105946 293.019429 
L 102.430925 293.019429 
L 102.755905 295.488 
L 107.305618 295.488 
L 107.630598 293.019429 
L 107.955577 295.488 
L 108.605536 295.488 
L 108.930516 293.019429 
L 109.905455 293.019429 
L 110.230434 295.488 
L 111.205373 295.488 
L 111.530352 293.019429 
L 111.855332 295.488 
L 112.180311 295.488 
L 112.505291 293.019429 
L 112.83027 295.488 
L 116.080066 295.488 
L 116.405045 293.019429 
L 116.730025 295.488 
L 117.055004 293.019429 
L 117.379984 295.488 
L 117.704963 293.019429 
L 118.029943 295.488 
L 118.679902 295.488 
L 119.004881 290.550857 
L 119.329861 293.019429 
L 119.65484 290.550857 
L 119.97982 290.550857 
L 120.304799 293.019429 
L 120.629779 293.019429 
L 120.954758 290.550857 
L 121.279738 295.488 
L 121.604717 295.488 
L 121.929697 285.613714 
L 122.579656 290.550857 
L 122.904636 285.613714 
L 123.229615 293.019429 
L 123.554595 293.019429 
L 123.879574 290.550857 
L 124.854513 290.550857 
L 125.179492 288.082286 
L 125.504472 290.550857 
L 125.829451 290.550857 
L 126.154431 278.208 
L 126.47941 295.488 
L 126.80439 290.550857 
L 127.779328 290.550857 
L 128.104308 295.488 
L 128.429287 290.550857 
L 129.079247 295.488 
L 129.404226 295.488 
L 129.729206 293.019429 
L 130.054185 293.019429 
L 130.379165 278.208 
L 130.704144 295.488 
L 131.354103 283.145143 
L 131.679083 290.550857 
L 132.004062 290.550857 
L 132.329042 293.019429 
L 132.654021 293.019429 
L 132.979001 288.082286 
L 133.30398 285.613714 
L 133.62896 290.550857 
L 133.953939 285.613714 
L 134.278919 295.488 
L 134.603898 295.488 
L 134.928878 293.019429 
L 135.253857 285.613714 
L 135.578837 295.488 
L 135.903817 283.145143 
L 136.228796 285.613714 
L 136.553776 295.488 
L 136.878755 290.550857 
L 137.528714 285.613714 
L 137.853694 293.019429 
L 138.178673 285.613714 
L 138.503653 288.082286 
L 138.828632 285.613714 
L 139.153612 290.550857 
L 139.478591 285.613714 
L 139.803571 288.082286 
L 140.45353 283.145143 
L 140.778509 290.550857 
L 141.103489 283.145143 
L 141.428468 290.550857 
L 141.753448 280.676571 
L 142.078428 288.082286 
L 142.403407 283.145143 
L 142.728387 273.270857 
L 143.053366 278.208 
L 143.378346 285.613714 
L 143.703325 280.676571 
L 144.353284 285.613714 
L 144.678264 285.613714 
L 145.003243 288.082286 
L 145.328223 275.739429 
L 145.653202 290.550857 
L 145.978182 278.208 
L 146.303161 283.145143 
L 146.628141 283.145143 
L 146.95312 275.739429 
L 147.2781 273.270857 
L 147.603079 280.676571 
L 147.928059 280.676571 
L 148.253038 283.145143 
L 148.578018 270.802286 
L 148.902998 278.208 
L 149.227977 280.676571 
L 149.552957 278.208 
L 149.877936 280.676571 
L 150.202916 285.613714 
L 150.527895 270.802286 
L 150.852875 290.550857 
L 151.502834 258.459429 
L 151.827813 273.270857 
L 152.152793 278.208 
L 152.477772 275.739429 
L 152.802752 278.208 
L 153.127731 265.865143 
L 153.452711 268.333714 
L 153.77769 288.082286 
L 154.10267 278.208 
L 154.427649 280.676571 
L 155.077609 275.739429 
L 155.402588 268.333714 
L 155.727568 285.613714 
L 157.027486 255.990857 
L 157.352465 275.739429 
L 157.677445 265.865143 
L 158.002424 270.802286 
L 158.327404 260.928 
L 158.977363 275.739429 
L 159.627322 263.396571 
L 159.952301 258.459429 
L 160.277281 275.739429 
L 160.60226 253.522286 
L 160.92724 260.928 
L 161.252219 258.459429 
L 161.577199 275.739429 
L 161.902179 258.459429 
L 162.227158 273.270857 
L 162.552138 278.208 
L 162.877117 251.053714 
L 163.202097 258.459429 
L 163.527076 243.648 
L 163.852056 263.396571 
L 164.177035 255.990857 
L 164.502015 258.459429 
L 164.826994 268.333714 
L 165.151974 260.928 
L 165.476953 265.865143 
L 165.801933 253.522286 
L 166.126912 253.522286 
L 166.451892 251.053714 
L 166.776871 251.053714 
L 167.101851 243.648 
L 167.42683 265.865143 
L 167.75181 260.928 
L 168.07679 260.928 
L 168.401769 251.053714 
L 168.726749 255.990857 
L 169.051728 238.710857 
L 169.376708 241.179429 
L 169.701687 263.396571 
L 170.026667 236.242286 
L 170.676626 258.459429 
L 171.001605 241.179429 
L 171.326585 258.459429 
L 171.651564 263.396571 
L 171.976544 233.773714 
L 172.301523 260.928 
L 172.626503 248.585143 
L 172.951482 243.648 
L 173.276462 248.585143 
L 173.601441 251.053714 
L 173.926421 260.928 
L 174.2514 241.179429 
L 174.57638 243.648 
L 174.90136 221.430857 
L 175.226339 263.396571 
L 175.551319 248.585143 
L 175.876298 241.179429 
L 176.201278 246.116571 
L 176.526257 233.773714 
L 176.851237 255.990857 
L 177.176216 233.773714 
L 177.826175 243.648 
L 178.151155 251.053714 
L 178.801114 216.493714 
L 179.126093 248.585143 
L 179.451073 233.773714 
L 179.776052 260.928 
L 180.426011 226.368 
L 180.750991 223.899429 
L 181.40095 236.242286 
L 182.050909 211.556571 
L 182.375889 209.088 
L 182.700868 233.773714 
L 183.025848 214.025143 
L 183.350827 233.773714 
L 184.000786 221.430857 
L 184.325766 226.368 
L 184.650745 236.242286 
L 184.975725 218.962286 
L 185.300704 211.556571 
L 185.625684 214.025143 
L 185.950663 231.305143 
L 186.275643 214.025143 
L 186.600622 233.773714 
L 186.925602 209.088 
L 187.250581 238.710857 
L 187.575561 211.556571 
L 187.900541 211.556571 
L 188.22552 201.682286 
L 188.5505 201.682286 
L 188.875479 233.773714 
L 189.200459 201.682286 
L 189.525438 223.899429 
L 190.175397 201.682286 
L 190.500377 223.899429 
L 191.150336 186.870857 
L 191.475315 221.430857 
L 191.800295 204.150857 
L 192.125274 214.025143 
L 192.450254 184.402286 
L 192.775233 196.745143 
L 193.100213 189.339429 
L 193.425192 204.150857 
L 193.750172 191.808 
L 194.075152 214.025143 
L 194.400131 204.150857 
L 194.725111 214.025143 
L 195.05009 201.682286 
L 195.37507 201.682286 
L 195.700049 204.150857 
L 196.025029 216.493714 
L 196.350008 201.682286 
L 196.674988 201.682286 
L 196.999967 179.465143 
L 197.324947 181.933714 
L 197.649926 176.996571 
L 197.974906 169.590857 
L 198.299885 186.870857 
L 198.624865 179.465143 
L 198.949844 209.088 
L 199.274824 184.402286 
L 199.599803 184.402286 
L 199.924783 176.996571 
L 200.249762 196.745143 
L 200.899722 154.779429 
L 201.224701 181.933714 
L 201.549681 169.590857 
L 201.87466 179.465143 
L 202.19964 201.682286 
L 202.524619 149.842286 
L 202.849599 176.996571 
L 203.174578 172.059429 
L 203.499558 174.528 
L 203.824537 181.933714 
L 204.149517 154.779429 
L 204.474496 172.059429 
L 204.799476 127.625143 
L 205.124455 157.248 
L 205.449435 159.716571 
L 205.774414 154.779429 
L 206.099394 137.499429 
L 206.424373 176.996571 
L 207.074333 167.122286 
L 207.399312 135.030857 
L 207.724292 181.933714 
L 208.049271 164.653714 
L 208.374251 164.653714 
L 209.02421 159.716571 
L 209.349189 125.156571 
L 209.674169 157.248 
L 209.999148 132.562286 
L 210.324128 144.905143 
L 210.649107 142.436571 
L 210.974087 137.499429 
L 211.299066 157.248 
L 211.624046 142.436571 
L 211.949025 117.750857 
L 212.274005 157.248 
L 212.598984 176.996571 
L 212.923964 144.905143 
L 213.248943 139.968 
L 213.573923 125.156571 
L 214.223882 172.059429 
L 214.548862 117.750857 
L 214.873841 122.688 
L 215.198821 112.813714 
L 215.5238 139.968 
L 215.84878 147.373714 
L 216.173759 149.842286 
L 216.498739 122.688 
L 216.823718 164.653714 
L 217.148698 125.156571 
L 217.473677 130.093714 
L 217.798657 167.122286 
L 218.123636 167.122286 
L 218.448616 122.688 
L 218.773595 120.219429 
L 219.098575 139.968 
L 219.423554 125.156571 
L 219.748534 167.122286 
L 220.073514 142.436571 
L 220.398493 137.499429 
L 220.723473 135.030857 
L 221.048452 157.248 
L 221.373432 167.122286 
L 221.698411 112.813714 
L 222.023391 100.470857 
L 222.34837 105.408 
L 222.67335 135.030857 
L 223.323309 80.722286 
L 223.973268 149.842286 
L 224.298247 117.750857 
L 224.623227 154.779429 
L 224.948206 93.065143 
L 225.273186 95.533714 
L 225.598165 147.373714 
L 225.923145 144.905143 
L 226.248124 100.470857 
L 226.573104 110.345143 
L 226.898084 137.499429 
L 227.223063 120.219429 
L 227.873022 130.093714 
L 228.198002 115.282286 
L 228.522981 78.253714 
L 228.847961 127.625143 
L 229.17294 93.065143 
L 229.49792 107.876571 
L 229.822899 88.128 
L 230.147879 93.065143 
L 230.472858 80.722286 
L 230.797838 105.408 
L 231.122817 115.282286 
L 231.447797 110.345143 
L 231.772776 102.939429 
L 232.097756 115.282286 
L 232.422735 117.750857 
L 232.747715 130.093714 
L 233.072695 105.408 
L 233.722654 125.156571 
L 234.047633 112.813714 
L 234.372613 78.253714 
L 234.697592 102.939429 
L 235.022572 85.659429 
L 235.347551 130.093714 
L 235.672531 85.659429 
L 236.32249 130.093714 
L 236.647469 120.219429 
L 236.972449 125.156571 
L 237.297428 100.470857 
L 237.622408 117.750857 
L 237.947387 120.219429 
L 238.272367 142.436571 
L 238.597346 93.065143 
L 238.922326 90.596571 
L 239.247305 105.408 
L 239.572285 93.065143 
L 239.897265 125.156571 
L 240.222244 142.436571 
L 240.547224 98.002286 
L 241.197183 53.568 
L 241.522162 78.253714 
L 241.847142 80.722286 
L 242.172121 93.065143 
L 242.497101 63.442286 
L 242.82208 90.596571 
L 243.14706 83.190857 
L 243.472039 95.533714 
L 243.797019 115.282286 
L 244.121998 115.282286 
L 244.446978 95.533714 
L 244.771957 122.688 
L 245.096937 112.813714 
L 245.421916 117.750857 
L 245.746896 137.499429 
L 246.071876 93.065143 
L 246.396855 110.345143 
L 246.721835 102.939429 
L 247.046814 110.345143 
L 247.371794 132.562286 
L 247.696773 90.596571 
L 248.021753 127.625143 
L 248.346732 125.156571 
L 248.671712 100.470857 
L 248.996691 90.596571 
L 249.321671 142.436571 
L 249.64665 68.379429 
L 249.97163 122.688 
L 250.296609 130.093714 
L 250.946568 60.973714 
L 251.271548 144.905143 
L 251.596527 58.505143 
L 251.921507 80.722286 
L 252.246486 120.219429 
L 252.571466 117.750857 
L 252.896446 100.470857 
L 253.221425 157.248 
L 253.546405 90.596571 
L 253.871384 98.002286 
L 254.196364 115.282286 
L 254.521343 112.813714 
L 254.846323 98.002286 
L 255.171302 110.345143 
L 255.496282 80.722286 
L 255.821261 135.030857 
L 256.146241 90.596571 
L 256.47122 90.596571 
L 256.7962 110.345143 
L 257.121179 107.876571 
L 257.446159 115.282286 
L 257.771138 98.002286 
L 258.096118 125.156571 
L 258.421097 122.688 
L 259.071057 112.813714 
L 259.396036 132.562286 
L 259.721016 139.968 
L 260.045995 98.002286 
L 260.370975 110.345143 
L 260.695954 115.282286 
L 261.020934 142.436571 
L 261.670893 130.093714 
L 261.995872 100.470857 
L 262.320852 125.156571 
L 262.645831 85.659429 
L 262.970811 130.093714 
L 263.29579 132.562286 
L 263.62077 125.156571 
L 263.945749 149.842286 
L 264.270729 152.310857 
L 264.595708 147.373714 
L 264.920688 125.156571 
L 265.245667 127.625143 
L 265.570647 93.065143 
L 265.895627 147.373714 
L 266.220606 93.065143 
L 266.545586 115.282286 
L 266.870565 120.219429 
L 267.195545 135.030857 
L 267.520524 159.716571 
L 267.845504 167.122286 
L 268.170483 130.093714 
L 268.495463 149.842286 
L 268.820442 125.156571 
L 269.145422 154.779429 
L 269.470401 135.030857 
L 269.795381 127.625143 
L 270.12036 147.373714 
L 270.44534 147.373714 
L 270.770319 135.030857 
L 271.095299 137.499429 
L 271.420278 149.842286 
L 271.745258 199.213714 
L 272.070238 115.282286 
L 272.395217 149.842286 
L 272.720197 152.310857 
L 273.045176 172.059429 
L 273.370156 162.185143 
L 273.695135 132.562286 
L 274.020115 154.779429 
L 274.345094 189.339429 
L 274.995053 127.625143 
L 275.320033 157.248 
L 275.645012 127.625143 
L 275.969992 152.310857 
L 276.619951 130.093714 
L 277.26991 206.619429 
L 277.594889 181.933714 
L 278.244848 157.248 
L 278.569828 169.590857 
L 278.894808 154.779429 
L 279.219787 176.996571 
L 279.544767 179.465143 
L 279.869746 167.122286 
L 280.194726 147.373714 
L 280.519705 144.905143 
L 280.844685 159.716571 
L 281.169664 149.842286 
L 281.494644 199.213714 
L 281.819623 176.996571 
L 282.144603 179.465143 
L 282.469582 189.339429 
L 282.794562 189.339429 
L 283.119541 157.248 
L 283.444521 159.716571 
L 283.7695 167.122286 
L 284.09448 191.808 
L 284.419459 196.745143 
L 284.744439 196.745143 
L 285.069419 172.059429 
L 285.394398 209.088 
L 285.719378 201.682286 
L 286.044357 169.590857 
L 286.369337 176.996571 
L 287.344275 176.996571 
L 287.669255 204.150857 
L 287.994234 189.339429 
L 288.319214 201.682286 
L 288.644193 196.745143 
L 288.969173 204.150857 
L 289.294152 184.402286 
L 289.619132 194.276571 
L 289.944111 194.276571 
L 290.269091 181.933714 
L 290.59407 164.653714 
L 291.569009 206.619429 
L 292.543948 226.368 
L 292.868927 181.933714 
L 293.193907 216.493714 
L 293.518886 228.836571 
L 293.843866 221.430857 
L 294.168845 206.619429 
L 294.493825 216.493714 
L 294.818804 221.430857 
L 295.143784 223.899429 
L 295.468763 216.493714 
L 295.793743 214.025143 
L 296.118722 238.710857 
L 296.443702 184.402286 
L 296.768681 216.493714 
L 297.093661 206.619429 
L 297.41864 238.710857 
L 297.74362 221.430857 
L 298.0686 216.493714 
L 298.393579 199.213714 
L 298.718559 226.368 
L 299.043538 243.648 
L 299.368518 206.619429 
L 299.693497 231.305143 
L 300.018477 228.836571 
L 300.668436 233.773714 
L 300.993415 211.556571 
L 301.318395 209.088 
L 301.643374 201.682286 
L 301.968354 228.836571 
L 302.293333 201.682286 
L 302.618313 221.430857 
L 302.943292 233.773714 
L 303.268272 211.556571 
L 303.593251 209.088 
L 303.918231 221.430857 
L 304.89317 243.648 
L 305.218149 246.116571 
L 305.543129 221.430857 
L 305.868108 236.242286 
L 306.193088 243.648 
L 306.518067 221.430857 
L 306.843047 223.899429 
L 307.168026 251.053714 
L 307.493006 221.430857 
L 307.817985 243.648 
L 308.142965 241.179429 
L 308.467944 251.053714 
L 308.792924 231.305143 
L 309.117903 226.368 
L 309.442883 246.116571 
L 309.767862 226.368 
L 310.092842 236.242286 
L 310.742801 260.928 
L 311.067781 228.836571 
L 311.39276 231.305143 
L 311.71774 238.710857 
L 312.042719 265.865143 
L 312.367699 243.648 
L 312.692678 238.710857 
L 313.017658 241.179429 
L 313.342637 253.522286 
L 313.667617 243.648 
L 313.992596 255.990857 
L 314.317576 246.116571 
L 314.642555 263.396571 
L 314.967535 243.648 
L 315.292514 278.208 
L 315.617494 263.396571 
L 315.942473 263.396571 
L 316.267453 258.459429 
L 316.592432 248.585143 
L 316.917412 263.396571 
L 317.242391 265.865143 
L 317.567371 273.270857 
L 317.892351 236.242286 
L 318.21733 253.522286 
L 318.54231 251.053714 
L 318.867289 246.116571 
L 319.192269 251.053714 
L 319.517248 265.865143 
L 319.842228 268.333714 
L 320.167207 258.459429 
L 320.492187 265.865143 
L 321.142146 265.865143 
L 321.467125 260.928 
L 322.117084 270.802286 
L 322.442064 265.865143 
L 322.767043 265.865143 
L 323.092023 268.333714 
L 323.741982 283.145143 
L 324.391941 268.333714 
L 324.716921 268.333714 
L 325.0419 270.802286 
L 325.36688 263.396571 
L 325.691859 263.396571 
L 326.341818 268.333714 
L 326.666798 288.082286 
L 326.991777 273.270857 
L 327.316757 273.270857 
L 327.641736 268.333714 
L 328.291695 268.333714 
L 328.616675 263.396571 
L 328.941654 270.802286 
L 329.266634 270.802286 
L 329.591613 275.739429 
L 329.916593 270.802286 
L 330.241572 270.802286 
L 330.566552 285.613714 
L 330.891532 280.676571 
L 331.216511 273.270857 
L 331.541491 273.270857 
L 331.86647 278.208 
L 332.19145 285.613714 
L 332.516429 273.270857 
L 332.841409 268.333714 
L 333.491368 280.676571 
L 333.816347 280.676571 
L 334.141327 290.550857 
L 334.466306 278.208 
L 335.116265 288.082286 
L 335.441245 283.145143 
L 335.766224 290.550857 
L 336.091204 283.145143 
L 336.416183 280.676571 
L 336.741163 270.802286 
L 337.066143 285.613714 
L 337.391122 278.208 
L 337.716102 265.865143 
L 338.041081 283.145143 
L 338.366061 288.082286 
L 338.69104 285.613714 
L 339.01602 278.208 
L 339.340999 285.613714 
L 339.665979 285.613714 
L 339.990958 283.145143 
L 340.315938 278.208 
L 340.640917 288.082286 
L 340.965897 280.676571 
L 341.290876 290.550857 
L 341.615856 285.613714 
L 341.940835 285.613714 
L 342.265815 288.082286 
L 342.590794 288.082286 
L 342.915774 280.676571 
L 343.240753 285.613714 
L 343.565733 293.019429 
L 343.890713 295.488 
L 344.215692 293.019429 
L 344.865651 283.145143 
L 345.190631 290.550857 
L 345.51561 283.145143 
L 345.84059 288.082286 
L 346.165569 280.676571 
L 346.490549 290.550857 
L 346.815528 288.082286 
L 347.140508 290.550857 
L 347.790467 290.550857 
L 348.115446 273.270857 
L 348.440426 293.019429 
L 348.765405 288.082286 
L 349.090385 285.613714 
L 349.415364 285.613714 
L 349.740344 288.082286 
L 350.065324 288.082286 
L 350.390303 290.550857 
L 350.715283 288.082286 
L 351.040262 290.550857 
L 351.365242 290.550857 
L 351.690221 288.082286 
L 352.015201 293.019429 
L 352.34018 290.550857 
L 352.66516 293.019429 
L 353.315119 293.019429 
L 353.640098 290.550857 
L 353.965078 283.145143 
L 354.290057 290.550857 
L 354.615037 293.019429 
L 354.940016 293.019429 
L 355.914955 285.613714 
L 356.239934 295.488 
L 356.564914 288.082286 
L 356.889894 293.019429 
L 357.214873 285.613714 
L 357.864832 290.550857 
L 358.189812 295.488 
L 358.839771 290.550857 
L 359.16475 293.019429 
L 359.48973 290.550857 
L 360.464668 290.550857 
L 360.789648 295.488 
L 361.114627 295.488 
L 361.439607 290.550857 
L 361.764586 293.019429 
L 362.089566 290.550857 
L 362.414545 295.488 
L 362.739525 293.019429 
L 363.064505 293.019429 
L 363.389484 295.488 
L 363.714464 290.550857 
L 364.039443 295.488 
L 364.364423 288.082286 
L 364.689402 293.019429 
L 365.014382 295.488 
L 365.339361 290.550857 
L 365.98932 295.488 
L 366.3143 293.019429 
L 366.639279 295.488 
L 367.289238 295.488 
L 367.614218 293.019429 
L 367.939197 293.019429 
L 368.264177 295.488 
L 369.239115 295.488 
L 369.564095 293.019429 
L 370.214054 293.019429 
L 370.539034 295.488 
L 370.864013 290.550857 
L 371.513972 295.488 
L 372.163931 295.488 
L 372.488911 290.550857 
L 372.81389 295.488 
L 373.13887 295.488 
L 373.463849 293.019429 
L 373.788829 293.019429 
L 374.113808 295.488 
L 374.438788 290.550857 
L 375.088747 295.488 
L 376.713645 295.488 
L 377.038624 293.019429 
L 377.363604 295.488 
L 377.688583 290.550857 
L 378.013563 295.488 
L 378.663522 295.488 
L 378.988501 290.550857 
L 379.313481 293.019429 
L 379.96344 293.019429 
L 380.288419 295.488 
L 380.938378 295.488 
L 381.263358 293.019429 
L 381.588337 295.488 
L 382.563276 295.488 
L 382.888256 293.019429 
L 383.213235 295.488 
L 383.538215 295.488 
L 383.863194 293.019429 
L 384.188174 295.488 
L 384.513153 295.488 
L 384.838133 293.019429 
L 385.163112 293.019429 
L 385.488092 295.488 
L 386.138051 295.488 
L 386.46303 293.019429 
L 386.78801 295.488 
L 389.387846 295.488 
L 389.712826 293.019429 
L 390.037805 295.488 
L 391.662703 295.488 
L 391.987682 293.019429 
L 392.312662 295.488 
L 397.512334 295.488 
L 397.837314 293.019429 
L 398.162293 295.488 
L 398.487273 293.019429 
L 398.487273 293.019429 
" style="fill:none;stroke:#1f77b4;stroke-linecap:square;stroke-width:1.5;"/>
   </g>
   <g id="patch_3">
    <path d="M 57.6 307.584 
L 57.6 41.472 
" style="fill:none;stroke:#000000;stroke-linecap:square;stroke-linejoin:miter;stroke-width:0.8;"/>
   </g>
   <g id="patch_4">
    <path d="M 414.72 307.584 
L 414.72 41.472 
" style="fill:none;stroke:#000000;stroke-linecap:square;stroke-linejoin:miter;stroke-width:0.8;"/>
   </g>
   <g id="patch_5">
    <path d="M 57.6 307.584 
L 414.72 307.584 
" style="fill:none;stroke:#000000;stroke-linecap:square;stroke-linejoin:miter;stroke-width:0.8;"/>
   </g>
   <g id="patch_6">
    <path d="M 57.6 41.472 
L 414.72 41.472 
" style="fill:none;stroke:#000000;stroke-linecap:square;stroke-linejoin:miter;stroke-width:0.8;"/>
   </g>
  </g>
 </g>
 <defs>
  <clipPath id="p71f453fb0e">
   <rect height="266.112" width="357.12" x="57.6" y="41.472"/>
  </clipPath>
 </defs>
</svg>
